<svg width="51" height="53" viewBox="0 0 51 53" fill="none" xmlns="http://www.w3.org/2000/svg">
<path fill-rule="evenodd" clip-rule="evenodd" d="M26.2134 12.7753C26.1069 13.504 25.9923 14.2889 25.8615 15.0735C25.7293 15.8008 25.3987 16.462 25.0681 17.1232C24.0102 19.0407 23.0845 19.1068 21.8944 17.3216C19.9769 14.4123 19.3157 11.1064 18.919 7.73426C18.9025 7.5359 18.8818 7.33753 18.8612 7.13917C18.7992 6.5441 18.7372 5.94903 18.7868 5.35396C18.8529 4.49441 18.9851 3.56874 19.3818 2.77531C20.043 1.3868 21.6299 0.72561 23.1507 1.05621C24.6714 1.32068 25.7293 2.44471 25.9938 4.0977C26.1346 5.55241 26.242 7.00713 26.3635 8.65095C26.4132 9.32316 26.4652 10.0274 26.5227 10.7758C26.4225 11.3439 26.3222 12.0304 26.2134 12.7753ZM49.9633 25.8694C50.107 25.7513 50.2494 25.6343 50.3918 25.5204C50.3587 25.4543 50.3422 25.3716 50.3257 25.289C50.3091 25.2063 50.2926 25.1237 50.2596 25.0575C50.1314 24.9843 50.0032 24.906 49.8736 24.8268C49.5353 24.6201 49.1874 24.4075 48.8049 24.2641C44.1766 22.1483 39.2176 22.2805 34.3248 22.8095C34.1485 22.8095 33.9722 22.8683 33.7958 22.927C33.7076 22.9563 33.6195 22.9858 33.5314 23.0078C31.9445 23.6029 30.9527 24.9914 31.0188 26.5122C31.0849 28.0329 32.1429 29.4214 33.7297 29.8181C34.3248 30.0165 34.986 30.0165 35.5811 30.0165C37.1679 29.9504 38.7548 29.8181 40.3417 29.6859C43.1848 29.4214 45.8296 28.5619 48.276 27.1072C48.8985 26.7441 49.4397 26.2995 49.9633 25.8694ZM19.5802 36.8268C19.3157 38.7442 19.1835 40.5956 19.0512 42.513C18.919 44.4966 18.9851 46.4802 19.5802 48.5299C19.9769 49.9184 20.572 51.1747 21.7621 52.1003C22.82 52.8938 23.349 52.8277 24.0763 51.7036C25.002 50.249 25.6632 48.7283 25.8615 47.0092C26.1223 44.7491 26.3259 42.4605 26.5288 40.1809C26.6345 38.9925 26.74 37.8066 26.8533 36.6284C26.8533 36.3639 26.8533 36.0333 26.7872 35.7027C26.5888 34.1159 25.3987 32.9257 23.9441 32.6613C22.4894 32.3307 20.9687 33.058 20.2414 34.4465C19.9108 35.1738 19.7124 36.0333 19.5802 36.8268ZM19.5038 29.3026C20.0834 29.0955 20.6902 28.8788 20.9687 28.099L19.9769 27.7023C14.6212 26.7767 9.26563 26.7766 3.84384 27.1734C3.05041 27.2395 2.25698 27.504 1.59578 27.9007C-0.123323 29.0247 0.00891507 31.405 1.92638 32.2646C2.65369 32.5952 3.57936 32.6613 4.3728 32.6613C5.67428 32.5993 6.91767 32.4211 8.21187 32.2357C8.2984 32.2233 8.38517 32.2109 8.47219 32.1984C12.1087 31.6695 15.7453 30.8099 19.1835 29.4214C19.2877 29.3797 19.3953 29.3413 19.5038 29.3026Z" fill="#004DB3"/>
</svg>
