<svg width="200" height="237" viewBox="0 0 200 237" fill="none" xmlns="http://www.w3.org/2000/svg">
<path fill-rule="evenodd" clip-rule="evenodd" d="M86.022 8.90845C86.392 2.14568 91.395 -1.36413 98.343 0.519202C101.215 1.28966 103.068 3.0017 103.902 5.65549C104.829 8.73725 104.551 11.819 102.976 14.6439C101.308 17.5545 98.714 19.3522 95.008 19.2666C91.395 19.1809 88.894 17.2121 87.597 14.2159C86.992 12.9736 86.679 11.6413 86.377 10.3496C86.262 9.86102 86.149 9.37827 86.022 8.90845ZM16.0753 176.351C16.0753 176.18 16.0753 175.666 16.1679 175.238C16.7238 173.782 16.9091 172.242 16.9091 170.615C16.9091 168.561 18.8546 167.02 21.1707 166.934C22.1898 166.934 23.3015 167.106 24.1353 167.448C27.1 168.732 29.8793 170.358 32.0101 172.67C36.3644 177.207 34.4189 184.654 28.3043 186.795C25.0618 187.993 21.6339 187.137 19.2252 184.654C17.4649 182.771 16.0753 179.347 16.0753 176.351ZM53.7816 220.866C52.2992 222.235 51.7434 223.947 51.7434 225.06C51.7434 229.683 54.0595 233.534 57.3947 235.332C61.564 237.558 66.289 236.36 68.605 232.422C71.94 226.772 68.049 218.982 61.286 217.612C58.6917 217.099 56.4682 217.612 54.8006 219.752C54.5227 220.18 54.1521 220.523 53.7816 220.866ZM188.023 158.716C187.931 159.116 187.858 159.525 187.786 159.934C187.642 160.752 187.498 161.57 187.189 162.312C185.151 167.362 178.759 168.646 174.59 164.794C172.459 162.91 171.625 160.429 171.255 157.774C171.162 157.004 170.977 156.148 170.699 155.378C169.402 152.296 170.699 149.642 174.127 148.615C178.388 147.245 184.039 149.214 186.263 152.809C187.375 154.607 187.931 156.576 188.023 158.716ZM0.249203 49.9016C0.209403 50.0977 0.173403 50.2744 0.140503 50.4267C0.233103 54.022 0.881602 56.5902 2.8272 58.6446C4.8653 60.8704 7.552 61.8976 10.7019 61.384C13.8518 60.8704 15.89 58.987 16.9091 56.1621C18.762 51.1115 15.7974 45.0335 9.9608 43.8351C9.7755 43.778 9.5902 43.7304 9.4049 43.6829C9.0343 43.5878 8.6637 43.4927 8.2932 43.3215C5.6991 42.2942 2.4566 43.3215 1.1596 46.4032C0.702603 47.67 0.433403 48.9948 0.249203 49.9016ZM158.933 197.238C158.933 200.748 156.987 203.487 153.837 204.429C150.965 205.37 148.001 204.515 145.87 202.203C143.461 199.464 142.442 196.297 142.535 192.872C142.627 190.39 144.11 188.335 145.685 186.452C146.704 185.254 148.279 184.911 149.946 185.168C150.873 185.34 151.799 185.682 152.54 186.195C155.876 188.25 158.933 193.472 158.933 197.238ZM0.881702 111.463V112.319C0.974302 116.171 2.2713 119.595 5.9771 121.821C8.4785 123.362 11.1652 123.704 13.9445 122.42C16.6312 121.136 17.8356 118.91 17.9282 116.257C18.1135 111.719 15.6121 108.381 11.5358 105.984C11.1652 105.727 10.7946 105.556 10.3314 105.47C5.6065 104.101 1.1596 106.925 0.881702 111.463ZM124.376 200.32C124.52 200.62 124.636 200.932 124.752 201.242C124.933 201.73 125.112 202.212 125.396 202.631C126.693 204.6 127.712 206.569 127.804 208.966C127.897 211.534 126.878 213.503 124.376 214.701C121.875 215.9 119.466 215.472 117.335 213.932C114.834 212.219 113.63 209.737 113.074 206.912C112.827 205.656 112.662 204.4 112.497 203.145V203.144C112.415 202.516 112.333 201.889 112.24 201.262C112.055 200.063 112.333 198.779 113.352 198.094L113.506 197.991C115.128 196.908 116.837 195.767 118.632 195.269C122.06 194.328 125.21 197.067 124.376 200.32ZM122.709 142.88C120.208 145.447 118.725 148.444 118.818 151.354C118.725 154.35 119.188 156.234 120.115 157.774C121.597 160.086 124.191 161.198 126.878 160.857C130.213 160.429 133.27 157.86 133.919 154.778C134.66 151.269 133.734 148.102 131.417 145.276C131.14 144.935 130.886 144.615 130.632 144.294L130.63 144.291L130.628 144.29C130.374 143.969 130.12 143.649 129.843 143.307C127.99 140.825 124.932 140.654 122.709 142.88ZM61.842 187.052C67.863 186.109 72.774 192.616 71.291 198.009C70.087 202.374 65.362 204.515 60.9151 202.717C56.4682 200.919 53.5962 195.441 54.9859 191.074C55.6344 188.678 57.8579 186.366 61.842 187.052ZM186.819 112.49C185.244 114.802 184.41 117.369 184.503 120.109C184.503 122.163 184.966 124.046 186.078 125.758C187.745 128.327 190.432 129.61 193.304 129.183C196.083 128.841 198.399 126.786 198.863 123.79C199.696 119.081 197.843 114.973 194.508 111.548C192.192 109.151 188.672 109.75 186.819 112.49ZM43.7806 142.089C43.9619 142.578 44.1412 143.06 44.4244 143.478C45.8141 145.704 46.4626 148.016 45.9994 150.583C45.6288 152.809 44.3318 154.521 41.923 155.207C39.4216 155.977 37.2908 155.207 35.5306 153.495C33.9556 151.868 33.1218 149.899 32.5659 147.845C32.288 146.817 31.9174 145.79 31.3616 144.849C30.1572 142.451 30.8057 140.225 33.1218 138.77C33.585 138.513 34.0251 138.214 34.4651 137.915C34.9052 137.615 35.3453 137.315 35.8085 137.058C37.5687 136.031 39.4216 135.86 41.2745 136.801C43.0348 137.744 43.7759 139.199 43.4053 141.168C43.5493 141.467 43.6653 141.779 43.7806 142.089ZM147.445 18.2394C149.946 17.0409 150.873 14.9864 150.965 12.7607C151.058 8.9941 148.279 4.71383 144.666 2.14568C140.96 -0.508021 136.328 1.20402 135.772 5.56985C135.494 7.53882 135.587 9.67891 135.957 11.6478C136.42 14.1303 137.81 16.2705 140.126 17.7258C142.442 19.181 144.944 19.5234 147.445 18.2394ZM84.447 158.888C84.447 158.231 84.437 157.575 84.426 156.919C84.406 155.606 84.385 154.293 84.447 152.981C84.632 150.327 87.319 148.615 90.191 149.471C91.395 149.814 92.507 150.412 93.433 151.183C95.564 152.981 97.046 155.121 98.158 157.603C98.992 159.486 99.177 161.455 98.343 163.424C97.417 165.907 95.564 167.448 92.785 167.876C89.913 168.304 87.689 167.277 86.022 165.136C84.632 163.253 84.169 161.113 84.447 158.888ZM172.829 58.0454C176.257 56.7614 178.481 53.5084 178.481 49.913C178.481 46.4032 176.443 43.4927 173.385 42.551C170.143 41.4381 166.437 42.551 164.214 45.1192C161.712 48.0297 161.805 53.4228 164.399 56.2478C166.437 58.4734 169.772 59.1583 172.829 58.0454ZM82.872 80.9018C82.872 82.357 82.501 83.8981 81.575 85.1824C78.981 88.9483 73.7 89.2911 70.643 85.867C68.419 83.3844 67.771 80.3881 67.863 77.2209C67.863 76.515 68.02 75.8082 68.176 75.1023C68.228 74.8667 68.28 74.6311 68.327 74.3955C69.16 70.8005 72.588 69.3453 76.201 70.9715C79.907 72.5126 82.872 76.964 82.872 80.9018ZM119.304 48.633C119.388 48.3753 119.472 48.1168 119.559 47.8585C119.281 45.4616 118.169 43.5782 116.039 41.9518C115.902 41.8434 115.756 41.7349 115.609 41.6249C115.059 41.2136 114.478 40.7799 114.186 40.2397C112.611 37.6716 108.256 37.158 105.57 40.3253C102.698 43.7494 102.605 49.0569 105.477 52.5667C108.998 56.8469 115.112 56.5045 117.984 51.8819C118.585 50.8402 118.943 49.7418 119.304 48.633ZM169.494 92.0305C169.402 95.1118 168.012 97.8513 164.955 99.6492C160.878 102.132 155.783 100.591 154.208 96.3961C152.262 91.3459 154.301 86.3807 160.786 84.4968C163.287 83.7272 165.603 84.4968 167.363 86.3807C168.846 87.9218 169.402 89.8048 169.494 92.0305ZM125.134 101.06C125.27 100.581 125.406 100.103 125.581 99.6492C125.396 95.0268 119.93 89.8048 115.019 89.8048C111.962 89.7188 109.553 91.7737 109.739 94.4272C109.831 96.0542 110.017 97.6803 110.387 99.3064C110.943 101.875 112.24 104.101 114.649 105.556C118.077 107.696 122.431 106.754 124.284 103.33C124.687 102.639 124.911 101.848 125.134 101.06ZM74.904 35.189C74.904 38.0995 73.33 40.4965 70.735 41.4381C68.141 42.3798 65.177 41.695 63.139 39.5548C60.3593 36.5587 59.5255 33.0489 60.3593 29.1967C60.7299 27.7414 61.564 26.543 62.768 25.6013C65.362 23.8036 68.697 24.4029 70.458 26.8854C71.013 27.6558 71.662 28.4261 72.31 29.1965C74.071 31.0798 74.904 32.9633 74.904 35.189ZM28.7405 68.7402C28.6464 69.0774 28.5646 69.3712 28.4896 69.6022C28.6749 73.369 29.5087 75.9366 31.9174 77.8196C35.5306 80.7309 40.626 79.6176 42.3862 75.5948C43.498 72.9403 43.1274 70.4578 41.2745 68.232C40.5334 67.2905 39.9775 66.435 39.6996 65.3216C39.051 62.9249 36.457 61.6408 33.7703 62.3256C32.0101 62.7537 30.6204 63.8666 29.8793 65.4076C29.3382 66.5948 28.9947 67.8273 28.7405 68.7402ZM85.559 113.945C85.559 115.571 85.095 117.198 83.891 118.739C81.297 121.821 76.665 122.078 73.515 119.252C70.55 116.599 69.716 111.805 71.569 108.381C72.774 106.155 74.904 105.128 77.591 105.47C77.684 105.47 77.753 105.492 77.823 105.513C77.892 105.535 77.962 105.556 78.054 105.556C83.15 106.24 85.559 108.894 85.559 113.945ZM141.608 123.191V128.584C141.608 130.21 142.164 132.35 144.017 134.062C147.074 136.887 151.892 136.031 153.559 132.436C155.412 128.498 152.077 121.05 147.816 119.424C144.666 118.226 141.608 120.109 141.608 123.191Z" fill="#AAC4E6"/>
</svg>
