<svg width="61" height="58" viewBox="0 0 61 58" fill="none" xmlns="http://www.w3.org/2000/svg">
<path fill-rule="evenodd" clip-rule="evenodd" d="M47.2653 5.92606C47.1799 6.34721 47.1396 6.54668 47.0838 6.81993L46.8098 7.0002C46.6685 7.55868 46.5384 8.09948 46.3942 8.63606C46.2726 9.08893 46.1082 9.53226 46.0114 9.98961C45.9038 10.4991 45.738 10.9915 45.6528 11.5125C45.5765 11.9828 45.6304 12.5085 45.3847 12.931C45.0982 13.4215 45.2735 13.97 45.0906 14.4711C44.9215 14.9338 44.8389 15.4279 44.7189 15.907C44.7298 15.9093 44.803 15.9241 44.8939 15.9431C44.7233 17.4173 44.5154 18.8942 44.7918 20.462C44.7676 20.4953 44.6866 20.6081 44.5869 20.7466C44.6872 20.7793 44.7788 20.8092 44.8733 20.8398C44.9561 21.6936 45.0939 22.5579 45.1506 23.4106C45.2201 24.4605 45.5343 25.4815 45.444 26.5538C45.3988 27.0923 45.5277 27.6787 45.7205 28.1896C45.839 28.5023 45.627 28.5644 45.5511 28.7596C45.6662 28.8132 45.7813 28.8674 45.9356 28.9394C46.0011 29.6162 46.0689 30.3129 46.1384 31.0307C45.9624 31.0027 45.8559 30.9855 45.6877 30.9589C45.5636 31.2745 45.1855 31.5113 45.4729 32.1578C45.1848 31.9377 45.0066 31.8016 44.7873 31.6341C44.7149 32.0683 44.6864 32.2389 44.6504 32.454C44.7849 32.5176 44.9111 32.5769 45.0499 32.6423C45.0632 32.8433 45.079 33.0738 45.0938 33.2961C45.0086 33.3347 44.919 33.4071 44.8818 33.3869C44.6088 33.2334 44.3459 33.0613 44.0818 32.8964C43.5811 33.1084 43.9095 33.5194 43.8451 33.833C43.7711 33.8178 43.6975 33.8022 43.595 33.7814C43.5208 33.9105 43.4416 34.0479 43.3582 34.1925C43.0494 34.0689 42.7581 33.9526 42.3449 33.7872C41.7723 33.0449 41.1808 32.1361 40.4375 31.3757C40.054 30.9824 39.7973 30.4363 39.3703 30.1768C38.8403 29.8543 38.7439 29.2459 38.3122 28.9439C37.8364 28.6104 37.6438 28.0613 37.2379 27.7353C36.7923 27.3775 36.5776 26.8439 36.1731 26.5171C35.2101 25.7391 34.5523 24.6404 33.4668 24.0034C33.3049 23.5085 32.6629 23.33 32.6386 22.7445C32.0783 22.4905 31.6822 22.0391 31.2602 21.6147C30.6646 21.0154 29.884 20.6217 29.3935 19.8958C29.2546 19.6907 28.9579 19.5923 28.5927 19.3531C28.9188 20.4063 29.1982 21.3103 29.5403 22.416C29.5096 22.5116 29.4066 22.8292 29.3025 23.1495C29.5631 23.3722 29.7465 23.5288 29.9418 23.6962C30.173 24.7618 30.8223 25.8107 30.6066 27.021C31.1479 27.0765 31.1489 27.6637 31.4479 27.9064C31.5968 29.2502 32.2506 30.3625 32.7164 31.6967C32.7109 31.7176 32.6647 31.8992 32.6207 32.0719C32.7333 32.5814 33.2266 32.8746 33.2362 33.4634C33.2425 33.8905 33.5021 34.3747 33.7866 34.7206C34.1337 35.1426 34.3011 35.6637 34.3474 36.1087C34.405 36.6613 34.7955 36.9428 34.9613 37.4367C34.9299 37.561 34.884 37.7428 34.8203 37.9949C35.5226 38.8731 35.9625 39.9397 36.5327 40.9692C36.4725 41.1407 36.412 41.3118 36.3344 41.533L36.9709 42.5005C36.7514 42.4729 36.6501 42.4597 36.4388 42.4325C36.8041 42.8859 36.7288 43.3321 36.5377 43.8271C36.4169 43.8348 36.2774 43.8437 36.1592 43.8516C35.984 44.6471 35.804 45.4641 35.6401 46.2096C35.3424 46.3028 35.1164 46.3731 34.8249 46.4642C34.7472 46.4177 34.6014 46.3301 34.4557 46.243L34.2347 46.3885C34.2663 46.509 34.3011 46.6417 34.3542 46.8438C33.8242 47.2515 33.2378 47.1642 32.6524 47.013C32.2895 46.6235 32.2895 46.6235 31.5464 46.6845C31.7944 46.8129 31.8884 46.8616 32.0346 46.9376C31.9638 47.0154 31.8838 47.1041 31.7721 47.2267C31.6012 47.0362 31.461 46.8796 31.2868 46.6858C31.2421 46.8213 31.2119 46.911 31.1898 46.9777C30.487 46.9463 29.7826 46.9149 28.9932 46.8794L28.7169 46.4593C28.6682 46.6257 28.6394 46.7229 28.6008 46.8549C28.4911 46.7695 28.3878 46.6886 28.2513 46.5821L27.8516 46.8451C27.6485 46.8032 27.5015 46.7725 27.3535 46.742C27.3893 46.4243 27.204 46.0694 27.5135 45.7938C26.8948 45.769 26.968 46.2767 26.8274 46.7231C26.6882 46.547 26.5796 46.4098 26.4658 46.2654C25.9235 46.2861 25.384 46.1932 24.8406 46.5285C24.3872 46.8085 23.8773 46.5112 23.4052 46.1877C23.3553 46.3236 23.3251 46.4059 23.2656 46.5701C23.1212 46.4231 22.9936 46.2924 22.8309 46.1258C22.7903 46.1614 22.7304 46.2142 22.5516 46.3704C22.188 46.3573 21.6628 46.2403 21.185 46.3439C20.5047 46.4915 19.9332 46.0177 19.2391 46.1804C18.6303 46.3231 17.9727 46.2738 17.3152 46.1703C16.4187 46.0294 15.4889 46.1016 14.5072 46.0812L14.8478 46.5988C14.9655 46.5818 15.135 46.5576 15.3664 46.5249C15.3706 46.7229 15.3741 46.8961 15.3789 47.1032C15.6769 47.2507 15.9789 47.4393 16.3072 47.551C16.5821 47.6447 16.8208 47.9707 17.1692 47.7399C17.3103 48.1593 17.7019 48.1773 18.0451 48.252C18.0232 48.3567 18.008 48.4301 17.9962 48.4874C19.2521 48.7648 20.3483 49.3813 21.408 50.0823C21.8144 50.1561 22.2206 50.2299 22.6229 50.3034L22.8287 50.6162C23.4007 50.8369 23.8983 51.0286 24.4645 51.2465C24.3445 51.4816 24.2595 51.6487 24.1499 51.8641C24.4816 52.033 24.7938 52.1916 25.0828 52.3386C25.2886 52.1169 25.4664 51.9261 25.6422 51.7366C26.3869 52.0523 27.0703 52.3419 27.9442 52.7125C27.5236 52.8697 27.3022 52.7436 27.0496 52.719C27.0658 53.2418 27.5243 53.0601 27.7703 53.1898C27.7643 53.3261 27.7573 53.4617 27.7432 53.7521C27.9497 53.6817 28.143 53.616 28.3363 53.5503C28.3211 53.6291 28.3061 53.708 28.2913 53.7866C28.3655 53.6362 28.4395 53.4858 28.5216 53.3203C28.8109 53.4888 29.0498 53.6282 29.2852 53.7658C29.2656 53.9087 29.2507 54.0171 29.2344 54.1339C29.3322 54.1583 29.4359 54.1848 29.5701 54.2185C29.7952 54.0015 30.035 53.7713 30.2531 53.5609C31.199 54.0259 32.0987 54.4687 32.9988 54.9113C32.9897 54.954 32.9811 54.9968 32.9721 55.0389C32.8645 55.0343 32.7571 55.0301 32.4911 55.0192C32.8922 55.4381 33.2231 55.7836 33.6077 56.185C33.316 56.5301 33.0463 56.8488 32.6546 57.3114C32.6527 57.3319 32.6339 57.555 32.6099 57.838C31.3704 57.294 30.1084 57.0548 28.8856 56.7329C27.1931 56.287 25.6304 55.5357 23.9852 54.9884C22.2722 54.4187 20.6341 53.6214 18.9611 52.9286C18.0088 52.5339 17.0434 52.1684 16.0988 51.7552C14.773 51.1748 13.4351 50.6131 12.1566 49.941C11.5933 49.6448 10.955 49.5699 10.4217 49.1527C9.96395 48.7945 9.32018 48.6721 8.75622 48.4517C7.31616 47.8884 5.8943 47.2834 4.39156 46.8833C3.41286 46.6233 2.46772 46.2342 1.36718 45.8546L0.625692 44.7276C0.893342 44.539 1.11795 44.2391 1.61486 44.3425C1.4793 44.0762 1.35239 43.8275 1.2325 43.5925C1.70868 42.6328 2.49001 42.0072 3.53988 41.4891C3.66145 41.536 3.90468 41.6298 4.35052 41.8011C4.40177 41.8368 4.6565 42.0137 4.96219 42.2266C5.18791 41.9254 5.35746 41.6993 5.51718 41.4861C6.02077 41.5138 6.52758 41.5071 7.02262 41.5791C7.44456 41.6401 7.9336 41.296 8.25684 41.9298C8.30499 41.6993 8.31988 41.6254 8.34852 41.4881C8.80447 41.8149 9.42197 41.2514 9.8241 41.8447C10.0025 41.7556 10.1625 41.6755 10.3519 41.5806C10.4211 41.6466 10.4971 41.7192 10.5812 41.7996C11.9839 41.4882 13.4 41.7117 14.8423 41.8358C14.9114 41.7903 15.0041 41.6787 15.1006 41.6747C15.4905 41.6591 15.9822 41.5315 16.2496 41.7155C16.6836 42.0151 17.2796 41.5917 17.594 42.1584C17.831 42.0213 18.0507 41.8941 18.2861 41.7575C18.3935 41.8371 18.505 41.9199 18.6415 42.0211C18.7558 41.9543 18.8809 41.8809 19.0746 41.7683C19.4344 41.8524 19.8527 41.9501 20.3477 42.0657C20.2017 42.305 20.1154 42.446 19.9956 42.6414C20.337 42.6439 20.6447 42.6461 20.953 42.6482C21.0086 42.5277 21.0636 42.4078 21.151 42.2159C21.3394 42.3071 21.504 42.4314 21.6839 42.4598C21.841 42.4848 22.0155 42.4018 22.1797 42.3672C22.2234 42.2596 22.276 42.1293 22.3659 41.908C22.5614 42.0039 22.7284 42.0865 23.0096 42.2247C23.0315 42.2941 23.1037 42.5222 23.1857 42.7817L23.5681 42.5301C23.9512 42.7387 24.2171 42.8875 24.69 42.7028C25.4939 42.3886 26.4016 42.4225 27.2676 42.3333C27.4003 42.3194 27.5512 42.4847 27.6919 42.5667C27.7269 42.452 27.7562 42.3568 27.753 42.3664C28.2359 42.4275 28.6952 42.4209 29.1085 42.5555C29.5289 42.6919 29.9044 42.9679 30.3991 43.2375C30.6605 43.1859 30.5839 42.9517 30.1433 42.5088C30.6251 42.6648 30.787 42.717 30.9831 42.7808C31.0018 42.9381 31.0211 43.1 31.0576 43.4081C31.252 43.1344 31.3826 42.9508 31.5297 42.7434C31.6218 42.7493 31.7282 42.7552 31.9017 42.7655C31.926 42.623 32.0355 42.3909 31.967 42.3101C31.6316 41.9149 31.6242 41.4552 31.586 41.0287C30.9503 40.4572 30.9332 39.6009 30.5834 38.9123C30.1975 38.1547 29.8444 37.3647 29.6146 36.5499C29.394 35.7699 29.19 34.9662 28.819 34.2712C28.4249 33.5334 28.2568 32.7322 27.923 31.9831C27.5827 31.2193 27.3486 30.4 27.1471 29.5851C26.9536 28.7996 26.5778 28.0844 26.3938 27.2879C26.2068 26.4782 25.9504 25.6559 25.6282 24.8896C25.3088 24.13 25.2265 23.3273 24.9578 22.5661C24.6899 21.8077 24.4578 21.0353 24.2491 20.2583C24.0324 19.4519 23.8692 18.6311 23.67 17.8196C23.4786 17.0397 23.2713 16.2633 23.054 15.4197C23.1109 15.1438 23.1858 14.7791 23.2601 14.4194C23.3555 14.4334 23.4642 14.4487 23.5621 14.4632C23.985 14.2267 23.7528 13.882 23.7348 13.6242C24.0913 13.2825 24.4246 12.9625 24.7851 12.6168C24.8409 12.6262 24.9505 12.6443 25.052 12.6614C25.2554 11.8959 25.897 11.9548 26.45 11.9911C27.0084 12.0283 27.5573 12.2026 28.1488 12.3245C28.8742 13.1498 30.1303 13.4539 30.5337 14.6744C30.692 14.6114 30.7898 14.5724 30.9535 14.5068C31.4121 15.0044 31.8968 15.5308 32.4455 16.1267C32.4717 16.1189 32.6001 16.0805 32.6954 16.0521C33.1854 16.4803 33.6719 16.8846 34.1314 17.3176C34.3119 17.4879 34.5452 17.7166 34.5563 17.9295C34.5849 18.4705 34.8011 18.7952 35.2839 19.0354C35.5057 19.1459 35.6363 19.4377 35.932 19.555L35.4451 18.8148C35.5939 18.7937 35.6925 18.7635 35.7017 18.7813C35.9819 19.305 36.4696 19.6372 36.9095 19.9833C37.2803 20.2748 37.6228 20.6515 37.6488 21.0235C37.6827 21.506 38.0316 21.7116 38.1809 22.2784C38.2831 22.0109 38.3128 21.9333 38.3429 21.8545C39.0705 22.1775 39.3241 22.3453 39.3963 22.9275C39.4539 23.3933 39.7817 23.5971 40.0769 23.873C39.9404 23.6037 39.8039 23.3346 39.5693 22.8716C40.1006 23.3967 40.4737 23.7656 41 24.286C40.6913 22.3516 40.894 20.6159 40.9053 18.8796C40.9168 17.1109 41.0619 16.1964 41.5268 14.8057C41.6109 14.553 41.5332 14.2497 41.5994 13.987C41.7148 13.5323 41.9229 13.0989 42.0195 12.6412C42.1079 12.221 42.0361 11.763 42.1473 11.3518C42.4425 10.2637 42.9173 9.22941 43.1414 8.11562C43.1633 8.0065 43.3607 7.93215 43.49 7.83167C43.4849 7.64376 43.4144 7.41291 43.4843 7.23802C43.8257 6.38329 44.1498 5.51409 44.5881 4.70861C44.9365 4.06838 45.2324 3.40073 45.6386 2.77691C46.0398 2.16057 46.5942 1.74026 47.0485 1.21431C47.5187 0.670393 48.2442 0.419673 49.0322 0.303299C48.8962 1.34677 50.0359 1.49581 50.4379 2.19419C50.2544 1.86174 50.0707 1.52897 49.8869 1.19618C49.9392 1.16633 49.9919 1.13655 50.0442 1.10661L50.4551 1.73125C50.5794 1.92014 50.7006 2.11115 50.8284 2.29723C50.9724 2.50548 51.0631 2.78051 51.3929 2.76632C51.1916 3.0663 51.6678 3.07872 51.6219 3.27791C51.5404 3.63559 52.0748 3.42825 52.032 3.77471C52.0087 3.966 52.1103 4.18825 52.2022 4.37328C52.3159 4.60179 52.478 4.80599 52.6062 5.00081C52.4853 5.15925 52.4013 5.26957 52.2681 5.44397C52.4723 5.39187 52.6014 5.35902 52.7811 5.31272C52.8556 5.407 52.9435 5.51814 53.0872 5.70027C53.0256 6.00068 52.9524 6.3567 52.8866 6.67661C53.0056 6.83784 53.0916 6.95422 53.1701 7.06081C53.3358 7.02172 53.4706 6.98998 53.6571 6.94571C53.5479 7.12707 53.4643 7.2659 53.3808 7.40507L53.5169 7.61201C53.6755 7.58943 53.8454 7.56555 54.0324 7.53866C54.2131 8.19767 54.2933 8.8698 54.6977 9.45352C54.8805 9.71795 54.8642 10.1203 54.9461 10.4974C54.9395 10.4948 55.0029 10.5165 55.0997 10.55C55.2853 11.1087 55.4778 11.6876 55.7146 12.4009C55.4136 12.3059 55.2126 12.2423 55.0256 12.1834C55.1814 12.5122 55.3358 12.6962 55.6582 12.9279C55.6559 12.9636 55.6575 12.9998 55.6516 13.0354C55.6383 13.1095 55.6217 13.1829 55.6036 13.2692C55.6774 13.2811 55.751 13.2913 55.8237 13.3053C55.859 13.3123 55.8933 13.3266 55.9305 13.3387C56.013 13.6404 56.0959 13.9444 56.2049 14.3437L55.3752 14.8896C55.3823 14.9458 55.39 15.0018 55.3977 15.0581C55.5674 15.0575 55.7373 15.0564 55.9787 15.0557C56.0223 14.9735 56.099 14.8277 56.2456 14.5509C56.4249 15.0587 56.5715 15.4729 56.7133 15.8753C56.6158 15.9758 56.5422 16.0509 56.4659 16.1293C57.1015 16.393 57.0707 16.9144 57.0297 17.4511C57.0168 17.6223 57.0404 17.8045 57.0878 17.9697C57.1933 18.3405 57.3244 18.704 57.4705 19.1453C57.4614 19.1558 57.3939 19.2354 57.2546 19.4004C57.3815 19.5678 57.5338 19.7685 57.7764 20.0874C57.7861 20.0042 57.7458 20.108 57.7678 20.1956C57.9451 20.906 58.2065 21.5943 58.3252 22.3204C58.3366 22.3888 58.4015 22.4461 58.4254 22.5142C58.5804 22.9577 58.2032 23.4508 58.5355 23.8722C58.829 24.2443 58.679 24.696 58.7919 25.1006C58.9136 25.5358 58.9946 25.9822 59.0857 26.4251C59.114 26.5616 59.0916 26.7122 59.1397 26.8388C59.1915 26.9762 59.2981 27.093 59.4185 27.276C59.36 27.4404 59.2857 27.6515 59.2301 27.8075L59.6513 28.4477C59.5033 29.087 59.343 29.7313 59.8001 30.328C59.8409 30.381 59.8831 30.4678 59.868 30.5233C59.6123 31.4631 60.1702 32.3112 60.1588 33.2389C60.148 34.1335 60.4345 35.0279 60.5006 35.9288C60.5887 37.1223 60.591 38.3217 60.6236 39.5189C60.6269 39.6288 60.6063 39.7534 60.5549 39.8487C60.0758 40.74 59.587 41.6263 59.1474 42.4307C58.6242 42.6459 58.1941 42.8228 57.6412 43.0502C57.4484 42.9599 57.1319 42.8112 56.8243 42.6669C56.6871 42.0334 56.5235 41.426 56.4316 40.8077C56.3391 40.1863 56.2718 39.5534 56.2752 38.9264C56.2818 37.5536 55.981 36.2145 55.8885 34.8554C55.8338 34.051 55.5385 33.2616 55.7259 32.4417C55.2892 31.1395 55.2277 29.7739 55.0082 28.4343C54.9133 27.8552 54.9044 27.2552 54.7137 26.6835C54.5373 26.157 54.4441 25.6031 54.312 25.0618C53.9005 23.3692 53.4967 21.6753 53.0726 19.9861C52.8518 19.1065 52.6112 18.2306 52.3496 17.362C52.0859 16.4873 51.7256 15.6252 51.5063 14.7576C51.1218 13.237 50.3376 11.8878 49.9005 10.3959C49.6698 9.60807 49.1627 8.89457 48.7347 8.17463C48.3181 7.47288 47.8438 6.80534 47.2653 5.92606Z" fill="#004DB3"/>
</svg>
