<svg width="32" height="26" viewBox="0 0 32 26" fill="none" xmlns="http://www.w3.org/2000/svg">
<g clip-path="url(#clip0_711_69)">
<mask id="mask0_711_69" style="mask-type:luminance" maskUnits="userSpaceOnUse" x="0" y="0" width="32" height="26">
<path d="M32 0.605591H0V25.3943H32V0.605591Z" fill="white"/>
</mask>
<g mask="url(#mask0_711_69)">
<path d="M27.0894 2.81302C25.0498 1.87718 22.8626 1.18769 20.5759 0.792794C20.5342 0.785173 20.4926 0.804219 20.4712 0.842313C20.1899 1.3426 19.8783 1.99526 19.6601 2.50826C17.2005 2.14003 14.7536 2.14003 12.3444 2.50826C12.1262 1.98386 11.8033 1.3426 11.5208 0.842313C11.4993 0.80549 11.4577 0.786444 11.4161 0.792794C9.13055 1.18643 6.94341 1.87592 4.90258 2.81302C4.88491 2.82064 4.86977 2.83335 4.85972 2.84984C0.711189 9.04766 -0.425267 15.0931 0.13224 21.0637C0.134763 21.0929 0.15116 21.1208 0.173864 21.1386C2.91095 23.1486 5.56228 24.3689 8.16437 25.1777C8.20602 25.1904 8.25014 25.1752 8.27664 25.1409C8.89217 24.3003 9.44086 23.414 9.9113 22.482C9.93906 22.4274 9.91256 22.3626 9.85582 22.341C8.98551 22.0109 8.1568 21.6084 7.35964 21.1513C7.29659 21.1145 7.29154 21.0243 7.34954 20.9811C7.5173 20.8554 7.68509 20.7246 7.84527 20.5925C7.87425 20.5684 7.91464 20.5633 7.94871 20.5786C13.1857 22.9696 18.8554 22.9696 24.0306 20.5786C24.0647 20.5621 24.1051 20.5672 24.1353 20.5913C24.2955 20.7233 24.4633 20.8554 24.6323 20.9811C24.6903 21.0243 24.6865 21.1145 24.6235 21.1513C23.8263 21.6173 22.9976 22.0109 22.126 22.3398C22.0693 22.3614 22.044 22.4274 22.0718 22.482C22.5523 23.4127 23.101 24.299 23.7052 25.1396C23.7304 25.1752 23.7758 25.1904 23.8175 25.1777C26.4322 24.3689 29.0835 23.1486 31.8206 21.1386C31.8446 21.1208 31.8597 21.0941 31.8622 21.0649C32.5294 14.1623 30.7447 8.16644 27.131 2.85111C27.1221 2.83335 27.107 2.82064 27.0894 2.81302ZM10.6934 17.4282C9.11666 17.4282 7.81751 15.9807 7.81751 14.203C7.81751 12.4253 9.09147 10.9778 10.6934 10.9778C12.3078 10.9778 13.5944 12.438 13.5692 14.203C13.5692 15.9807 12.2952 17.4282 10.6934 17.4282ZM21.3263 17.4282C19.7497 17.4282 18.4505 15.9807 18.4505 14.203C18.4505 12.4253 19.7244 10.9778 21.3263 10.9778C22.9408 10.9778 24.2274 12.438 24.2022 14.203C24.2022 15.9807 22.9408 17.4282 21.3263 17.4282Z" fill="white"/>
</g>
</g>
<defs>
<clipPath id="clip0_711_69">
<rect width="32" height="24.7887" fill="white" transform="translate(0 0.605591)"/>
</clipPath>
</defs>
</svg>
