<svg width="200" height="40" viewBox="0 0 200 40" fill="none" xmlns="http://www.w3.org/2000/svg">
<g clip-path="url(#clip0_701_59)">
<path d="M23.2546 7.73866L11.6976 15.1025L23.2546 22.4664L11.6976 29.8303L0.140503 22.4266L11.6976 15.0627L0.140503 7.73866L11.6976 0.374786L23.2546 7.73866ZM11.6378 32.1987L23.1949 24.8348L34.7519 32.1987L23.1949 39.5625L11.6378 32.1987ZM23.2546 22.4266L34.8117 15.0627L23.2546 7.73866L34.7519 0.374786L46.309 7.73866L34.7519 15.1025L46.309 22.4664L34.7519 29.8303L23.2546 22.4266Z" fill="white"/>
<path d="M55.3752 7.73864H64.7205C70.6784 7.73864 75.6001 11.1817 75.6001 19.0432V20.6951C75.6001 28.6162 70.9972 32.1787 64.8999 32.1787H55.3752V7.73864ZM60.5958 12.1769V27.7206H64.601C67.9884 27.7206 70.2599 25.5114 70.2599 20.5956V19.3019C70.2599 14.386 67.8688 12.1769 64.4216 12.1769H60.5958ZM78.3698 12.4157H82.5543L83.2318 17.0131C84.0288 13.8885 86.0612 12.2167 89.7475 12.2167H91.0427V17.4908H88.8907C84.6465 17.4908 83.6103 18.9636 83.6103 23.1431V32.2385H78.4495V12.4157H78.3698ZM92.0789 22.7251V22.1679C92.0789 15.5404 96.3231 11.9181 102.102 11.9181C108 11.9181 112.124 15.5404 112.124 22.1679V22.7251C112.124 29.2332 108.119 32.736 102.102 32.736C95.7054 32.6763 92.0789 29.2531 92.0789 22.7251ZM106.844 22.6654V22.1679C106.844 18.4859 104.991 16.2768 102.042 16.2768C99.1526 16.2768 97.2397 18.3068 97.2397 22.1679V22.6654C97.2397 26.2279 99.0928 28.258 102.042 28.258C104.991 28.1983 106.844 26.2279 106.844 22.6654ZM114.834 12.4157H119.138L119.637 16.1573C120.673 13.6496 122.884 11.9181 126.152 11.9181C131.194 11.9181 134.521 15.5404 134.521 22.2475V22.8047C134.521 29.3128 130.835 32.7559 126.152 32.7559C123.024 32.7559 120.872 31.3428 119.816 29.074V39.0849H114.775L114.834 12.4157ZM129.281 22.6654V22.2276C129.281 18.2869 127.248 16.3365 124.538 16.3365C121.649 16.3365 119.736 18.5456 119.736 22.2276V22.6057C119.736 26.1085 121.589 28.3177 124.479 28.3177C127.447 28.258 129.281 26.3673 129.281 22.6654ZM142.153 28.5764L141.714 32.1986H137.291V5.78821H142.332V15.9185C143.448 13.3312 145.66 11.9181 148.788 11.9181C153.531 11.9778 157.038 15.2418 157.038 21.8096V22.4266C157.038 28.9944 153.71 32.7559 148.669 32.7559C145.341 32.6763 143.189 31.1438 142.153 28.5764ZM151.737 22.4266V21.929C151.737 18.3068 149.765 16.2768 146.995 16.2768C144.165 16.2768 142.193 18.5456 142.193 21.9887V22.4266C142.193 26.1085 144.106 28.258 146.935 28.258C149.964 28.258 151.737 26.3673 151.737 22.4266ZM159.249 22.7251V22.1679C159.249 15.5404 163.494 11.9181 169.272 11.9181C175.17 11.9181 179.295 15.5404 179.295 22.1679V22.7251C179.295 29.2332 175.23 32.736 169.272 32.736C162.876 32.6763 159.249 29.2531 159.249 22.7251ZM174.054 22.6654V22.1679C174.054 18.4859 172.201 16.2768 169.252 16.2768C166.363 16.2768 164.45 18.3068 164.45 22.1679V22.6654C164.45 26.2279 166.303 28.258 169.252 28.258C172.221 28.1983 174.054 26.2279 174.054 22.6654ZM186.05 21.929L179.096 12.4157H185.053L189.059 18.3665L193.123 12.4157H199.022L191.968 21.8693L199.4 32.1986H193.562L189.019 25.6309L184.595 32.1986H178.498L186.05 21.929Z" fill="white"/>
</g>
<defs>
<clipPath id="clip0_701_59">
<rect width="199.26" height="39.1877" fill="white" transform="translate(0.140503 0.374786)"/>
</clipPath>
</defs>
</svg>
