<svg width="33" height="32" viewBox="0 0 33 32" fill="none" xmlns="http://www.w3.org/2000/svg">
<g clip-path="url(#clip0_711_67)">
<path d="M10.1235 0.112022C8.42107 0.192342 7.25851 0.464022 6.24219 0.863382C5.19035 1.2733 4.29883 1.82338 3.41179 2.71362C2.52475 3.60386 1.97851 4.49602 1.57147 5.54946C1.17755 6.56802 0.910666 7.73154 0.835466 9.4349C0.760266 11.1383 0.743626 11.6858 0.751946 16.0307C0.760266 20.3757 0.779466 20.9203 0.862026 22.6272C0.943306 24.3293 1.21403 25.4915 1.61339 26.5082C2.02395 27.56 2.57339 28.4512 3.46395 29.3386C4.35451 30.2259 5.24603 30.7709 6.30203 31.1786C7.31963 31.5719 8.48347 31.84 10.1865 31.9146C11.8895 31.9891 12.4377 32.0064 16.7814 31.9981C21.1251 31.9898 21.6719 31.9706 23.3785 31.8896C25.0851 31.8087 26.2412 31.536 27.2582 31.1386C28.31 30.7271 29.2019 30.1786 30.0886 29.2877C30.9753 28.3968 31.5212 27.504 31.9279 26.4499C32.3222 25.4323 32.59 24.2685 32.6639 22.5667C32.7385 20.8589 32.7561 20.3136 32.7478 15.9693C32.7395 11.625 32.7199 11.0803 32.639 9.3741C32.558 7.66786 32.287 6.50914 31.8879 5.49186C31.4767 4.44002 30.9279 3.54946 30.0377 2.66146C29.1475 1.77346 28.254 1.22786 27.2003 0.822102C26.182 0.428182 25.0188 0.159702 23.3158 0.0861023C21.6127 0.0125023 21.0646 -0.00637775 16.7193 0.00194225C12.374 0.0102622 11.83 0.0288223 10.1235 0.112022ZM10.3103 29.0362C8.75035 28.9683 7.90331 28.7091 7.33883 28.4922C6.59131 28.2042 6.05883 27.856 5.49627 27.2989C4.93371 26.7418 4.58811 26.2074 4.29627 25.4615C4.07707 24.897 3.81307 24.0509 3.74011 22.4909C3.66075 20.8048 3.64411 20.2986 3.63483 16.0269C3.62555 11.7552 3.64187 11.2496 3.71579 9.5629C3.78235 8.00418 4.04315 7.15618 4.25979 6.59202C4.54779 5.84354 4.89467 5.31202 5.45307 4.74978C6.01147 4.18754 6.54427 3.8413 7.29083 3.54946C7.85467 3.3293 8.70075 3.06754 10.2601 2.9933C11.9475 2.9133 12.4531 2.8973 16.7241 2.88802C20.9951 2.87874 21.502 2.89474 23.19 2.96898C24.7487 3.03682 25.5971 3.29506 26.1606 3.51298C26.9084 3.80098 27.4406 4.1469 28.0028 4.70626C28.5651 5.26562 28.9116 5.7965 29.2035 6.54466C29.4239 7.1069 29.6857 7.95266 29.7593 9.51298C29.8396 11.2003 29.8579 11.7063 29.8655 15.977C29.8732 20.2477 29.8582 20.7549 29.7843 22.441C29.7161 24.001 29.4575 24.8483 29.2403 25.4135C28.9523 26.1607 28.6051 26.6935 28.0463 27.2554C27.4876 27.8173 26.9555 28.1635 26.2086 28.4554C25.6454 28.6752 24.7983 28.9376 23.2403 29.0119C21.5529 29.0912 21.0473 29.1079 16.7747 29.1171C12.502 29.1264 11.998 29.1091 10.3107 29.0362M23.3539 7.44866C23.3545 7.82843 23.4677 8.19948 23.6793 8.51488C23.8908 8.83029 24.1911 9.07588 24.5422 9.22059C24.8933 9.36531 25.2795 9.40265 25.6518 9.32789C26.0241 9.25314 26.3659 9.06964 26.634 8.80061C26.902 8.53158 27.0843 8.18911 27.1577 7.8165C27.2311 7.44389 27.1923 7.05789 27.0463 6.70731C26.9003 6.35673 26.6536 6.05732 26.3374 5.84695C26.0213 5.63658 25.6498 5.5247 25.27 5.52546C24.7609 5.52648 24.2731 5.72965 23.9137 6.09031C23.5544 6.45096 23.353 6.93956 23.3539 7.44866ZM8.53467 16.016C8.54363 20.5536 12.2287 24.2237 16.7654 24.2151C21.302 24.2064 24.9747 20.5216 24.966 15.984C24.9574 11.4464 21.2713 7.77538 16.734 7.78434C12.1967 7.7933 8.52603 11.4791 8.53467 16.016ZM11.4166 16.0103C11.4145 14.9554 11.7253 13.9236 12.3096 13.0454C12.8939 12.1672 13.7255 11.4819 14.6992 11.0763C15.673 10.6707 16.7452 10.563 17.7802 10.7667C18.8151 10.9704 19.7665 11.4765 20.5139 12.2209C21.2612 12.9654 21.7711 13.9147 21.9789 14.9489C22.1867 15.983 22.0832 17.0556 21.6815 18.031C21.2798 19.0063 20.5978 19.8406 19.7219 20.4284C18.846 21.0162 17.8154 21.3311 16.7606 21.3331C16.0602 21.3346 15.3663 21.1981 14.7187 20.9314C14.071 20.6647 13.4822 20.273 12.986 19.7787C12.4897 19.2844 12.0957 18.6972 11.8264 18.0506C11.5572 17.404 11.4179 16.7107 11.4166 16.0103Z" fill="white"/>
</g>
<defs>
<clipPath id="clip0_711_67">
<rect width="32" height="32" fill="white" transform="translate(0.75)"/>
</clipPath>
</defs>
</svg>
