<svg width="32" height="32" viewBox="0 0 32 32" fill="none" xmlns="http://www.w3.org/2000/svg">
<rect width="32" height="32" rx="4" fill="#F79E8E" fill-opacity="0.2"/>
<mask id="mask0_6_229" style="mask-type:alpha" maskUnits="userSpaceOnUse" x="8" y="8" width="16" height="16">
<rect x="8" y="8" width="16" height="16" fill="#D9D9D9"/>
</mask>
<g mask="url(#mask0_6_229)">
<path d="M8.66675 16.0001C8.66675 14.9779 8.85853 14.0223 9.24208 13.1334C9.62519 12.2445 10.1501 11.4694 10.8167 10.8081C11.4834 10.1472 12.2612 9.62497 13.1501 9.24141C14.039 8.8583 14.989 8.66675 16.0001 8.66675C17.0112 8.66675 17.9612 8.8583 18.8501 9.24141C19.739 9.62497 20.5167 10.1472 21.1834 10.8081C21.8501 11.4694 22.3752 12.2445 22.7587 13.1334C23.1419 14.0223 23.3334 14.9779 23.3334 16.0001H22.0001C22.0001 15.1667 21.8419 14.3861 21.5254 13.6581C21.2085 12.9305 20.7779 12.2945 20.2334 11.7501C19.689 11.2056 19.053 10.7779 18.3254 10.4667C17.5974 10.1556 16.8223 10.0001 16.0001 10.0001C15.1779 10.0001 14.4027 10.1556 13.6747 10.4667C12.9472 10.7779 12.3112 11.2056 11.7667 11.7501C11.2223 12.2945 10.7916 12.9305 10.4747 13.6581C10.1583 14.3861 10.0001 15.1667 10.0001 16.0001H8.66675ZM11.3334 16.0001C11.3334 14.689 11.789 13.5834 12.7001 12.6834C13.6112 11.7834 14.7112 11.3334 16.0001 11.3334C17.289 11.3334 18.389 11.7834 19.3001 12.6834C20.2112 13.5834 20.6667 14.689 20.6667 16.0001H19.3334C19.3334 15.0779 19.0085 14.2916 18.3587 13.6414C17.7085 12.9916 16.9223 12.6667 16.0001 12.6667C15.0779 12.6667 14.2919 12.9916 13.6421 13.6414C12.9919 14.2916 12.6667 15.0779 12.6667 16.0001H11.3334ZM14.0001 22.9334L13.0667 22.0001L15.3334 19.7334V17.5334C15.0334 17.4001 14.7919 17.1945 14.6087 16.9167C14.4252 16.639 14.3334 16.3334 14.3334 16.0001C14.3334 15.5334 14.4945 15.139 14.8167 14.8167C15.139 14.4945 15.5334 14.3334 16.0001 14.3334C16.4667 14.3334 16.8612 14.4945 17.1834 14.8167C17.5056 15.139 17.6667 15.5334 17.6667 16.0001C17.6667 16.3334 17.5752 16.639 17.3921 16.9167C17.2085 17.1945 16.9667 17.4001 16.6667 17.5334V19.7334L18.9334 22.0001L18.0001 22.9334L16.0001 20.9334L14.0001 22.9334Z" fill="#F69E8E"/>
</g>
</svg>
