<svg width="1728" height="971" viewBox="0 0 1728 971" fill="none" xmlns="http://www.w3.org/2000/svg">
<g clip-path="url(#clip0_22_1058)">
<path d="M-1138.06 676.911C-1106.04 642.004 -974.585 875.78 -942.545 840.854C-910.505 805.929 -1041.98 572.171 -1009.94 537.245C-977.897 502.319 -846.46 736.114 -814.42 701.189C-782.381 666.263 -913.852 432.505 -881.812 397.579C-849.772 362.653 -718.336 596.449 -686.296 561.523C-654.256 526.597 -785.727 292.839 -753.687 257.914C-721.648 222.988 -590.211 456.783 -558.171 421.857C-526.132 386.932 -657.602 153.174 -625.58 118.267C-593.557 83.3595 -462.087 317.117 -429.995 282.135C-397.904 247.154 -529.426 13.4518 -497.404 -21.4552C-465.381 -56.3623 -333.893 177.377 -301.939 142.545C-269.986 107.712 -401.371 -126.139 -369.245 -161.158C-337.119 -196.178 -205.769 37.7112 -173.746 2.80411C-141.724 -32.103 -273.16 -265.898 -241.138 -300.805C-209.115 -335.712 -77.6614 -101.936 -45.6217 -136.862C-13.582 -171.787 -145.053 -405.545 -113.03 -440.452C-81.0077 -475.359 50.4632 -241.602 82.5029 -276.527C114.543 -311.453 -16.9283 -545.211 15.1115 -580.137C47.1512 -615.062 178.588 -381.267 210.627 -416.193C242.667 -451.119 111.196 -684.877 143.236 -719.802C175.276 -754.728 306.712 -520.933 338.752 -555.859C370.792 -590.784 239.321 -824.542 271.361 -859.468C303.4 -894.394 434.837 -660.599 466.876 -695.524C498.916 -730.45 367.463 -964.227 399.485 -999.134C431.508 -1034.04 562.979 -800.283 595.001 -835.19C627.024 -870.097 495.587 -1103.89 527.61 -1138.8C559.632 -1173.71 691.103 -939.949 723.143 -974.874C755.182 -1009.8 623.712 -1243.56 655.751 -1278.48C687.791 -1313.41 819.245 -1079.63 851.267 -1114.54C883.29 -1149.45 751.853 -1383.24 783.893 -1418.17C815.933 -1453.09 947.387 -1219.32 979.426 -1254.24C1011.47 -1289.17 880.012 -1522.95 912.035 -1557.85" stroke="#A0A3BD" stroke-opacity="0.1" stroke-width="1.898" stroke-miterlimit="10"/>
<path d="M-868.252 1156.74C-836.23 1121.83 -704.776 1355.61 -672.736 1320.68C-640.697 1285.76 -772.167 1052 -740.128 1017.07C-708.088 982.147 -576.652 1215.94 -544.612 1181.02C-512.572 1146.09 -644.043 912.333 -612.003 877.407C-579.963 842.481 -448.527 1076.28 -416.487 1041.35C-384.448 1006.43 -515.918 772.667 -483.879 737.741C-451.839 702.816 -320.402 936.611 -288.363 901.685C-256.323 866.759 -387.794 633.002 -355.771 598.094C-323.749 563.187 -192.278 796.945 -160.187 761.963C-128.096 726.981 -259.618 493.28 -227.595 458.373C-195.573 423.466 -64.0848 657.205 -32.1308 622.373C-0.176935 587.54 -131.562 353.689 -99.4364 318.67C-67.3109 283.65 64.0398 517.539 96.0624 482.632C128.085 447.725 -3.35152 213.93 28.671 179.023C60.6936 144.115 192.147 377.892 224.187 342.966C256.227 308.041 124.756 74.2827 156.778 39.3756C188.801 4.46855 320.272 238.226 352.311 203.301C384.351 168.375 252.88 -65.383 284.92 -100.309C316.96 -135.235 448.396 98.5607 480.436 63.635C512.476 28.7092 381.005 -205.049 413.045 -239.974C445.084 -274.9 576.521 -41.1049 608.56 -76.0307C640.6 -110.956 509.13 -344.714 541.169 -379.64C573.209 -414.566 704.645 -180.771 736.685 -215.696C768.725 -250.622 637.271 -484.399 669.294 -519.306C701.316 -554.213 832.787 -320.455 864.81 -355.362C896.832 -390.269 765.396 -624.064 797.418 -658.972C829.441 -693.879 960.912 -460.121 992.951 -495.047C1024.99 -529.972 893.52 -763.73 925.56 -798.656C957.6 -833.582 1089.05 -599.805 1121.08 -634.712C1153.1 -669.619 1021.66 -903.414 1053.7 -938.34C1085.74 -973.266 1217.2 -739.49 1249.23 -774.415C1281.27 -809.341 1149.82 -1043.12 1181.84 -1078.02" stroke="#A0A3BD" stroke-opacity="0.1" stroke-width="1.3286" stroke-miterlimit="10"/>
<path d="M-394.281 1999.65C-362.258 1964.74 -230.805 2198.52 -198.765 2163.59C-166.725 2128.66 -298.196 1894.91 -266.156 1859.98C-234.117 1825.06 -102.68 2058.85 -70.6406 2023.92C-38.6009 1989 -170.072 1755.24 -138.032 1720.32C-105.992 1685.39 25.4443 1919.18 57.484 1884.26C89.5237 1849.33 -41.9471 1615.58 -9.90737 1580.65C22.1323 1545.72 153.569 1779.52 185.609 1744.59C217.648 1709.67 86.1775 1475.91 118.2 1441C150.223 1406.1 281.693 1639.85 313.785 1604.87C345.876 1569.89 214.354 1336.19 246.376 1301.28C278.399 1266.37 409.887 1500.11 441.84 1465.28C473.794 1430.45 342.409 1196.6 374.535 1161.58C406.66 1126.56 538.011 1360.45 570.034 1325.54C602.056 1290.63 470.62 1056.84 502.642 1021.93C534.665 987.023 666.118 1220.8 698.158 1185.87C730.198 1150.95 598.727 917.191 630.75 882.284C662.772 847.377 794.243 1081.13 826.283 1046.21C858.323 1011.28 726.852 777.525 758.891 742.599C790.931 707.673 922.368 941.469 954.407 906.543C986.447 871.617 854.976 637.859 887.016 602.933C919.056 568.008 1050.49 801.803 1082.53 766.877C1114.57 731.952 983.101 498.193 1015.14 463.268C1047.18 428.342 1178.62 662.137 1210.66 627.212C1242.7 592.286 1111.24 358.509 1143.27 323.602C1175.29 288.695 1306.76 522.453 1338.78 487.546C1370.8 452.639 1239.37 218.844 1271.39 183.936C1303.41 149.029 1434.88 382.787 1466.92 347.861C1498.96 312.936 1367.49 79.1777 1399.53 44.252C1431.57 9.32618 1563.02 243.103 1595.05 208.196C1627.07 173.289 1495.63 -60.5065 1527.67 -95.4323C1559.71 -130.358 1691.17 103.418 1723.21 68.4926C1755.25 33.5668 1623.79 -200.21 1655.81 -235.117" stroke="#A0A3BD" stroke-opacity="0.1" stroke-width="1.3286" stroke-miterlimit="10"/>
<path d="M283.853 3205.64C315.876 3170.73 447.329 3404.51 479.369 3369.58C511.409 3334.65 379.938 3100.9 411.978 3065.97C444.017 3031.04 575.454 3264.84 607.493 3229.91C639.533 3194.99 508.062 2961.23 540.102 2926.3C572.142 2891.38 703.578 3125.17 735.618 3090.25C767.658 3055.32 636.187 2821.56 668.227 2786.64C700.266 2751.71 831.703 2985.51 863.743 2950.58C895.782 2915.66 764.312 2681.9 796.334 2646.99C828.357 2612.08 959.827 2845.84 991.919 2810.86C1024.01 2775.88 892.488 2542.18 924.51 2507.27C956.533 2472.36 1088.02 2706.1 1119.97 2671.27C1151.93 2636.44 1020.54 2402.59 1052.67 2367.57C1084.79 2332.55 1216.15 2566.44 1248.17 2531.53C1280.19 2496.62 1148.75 2262.83 1180.78 2227.92C1212.8 2193.01 1344.25 2426.79 1376.29 2391.86C1408.33 2356.94 1276.86 2123.18 1308.88 2088.27C1340.91 2053.37 1472.38 2287.12 1504.42 2252.2C1536.46 2217.27 1404.99 1983.51 1437.03 1948.59C1469.07 1913.66 1600.5 2147.46 1632.54 2112.53C1664.58 2077.61 1533.11 1843.85 1565.15 1808.92C1597.19 1774 1728.63 2007.79 1760.67 1972.87C1792.71 1937.94 1661.23 1704.18 1693.27 1669.26C1725.31 1634.33 1856.75 1868.13 1888.79 1833.2C1920.83 1798.27 1789.38 1564.5 1821.4 1529.59C1853.42 1494.68 1984.89 1728.44 2016.92 1693.53C2048.94 1658.63 1917.5 1424.83 1949.52 1389.93C1981.55 1355.02 2113.02 1588.78 2145.06 1553.85C2177.1 1518.92 2045.63 1285.17 2077.67 1250.24C2109.71 1215.32 2241.16 1449.09 2273.18 1414.18C2305.2 1379.28 2173.77 1145.48 2205.81 1110.56C2237.85 1075.63 2369.3 1309.41 2401.34 1274.48C2433.38 1239.56 2301.93 1005.78 2333.95 970.872" stroke="#A0A3BD" stroke-opacity="0.1" stroke-width="1.3286" stroke-miterlimit="10"/>
<path d="M-1006.61 910.687C-974.584 875.78 -843.13 1109.56 -811.091 1074.63C-779.051 1039.7 -910.522 805.947 -878.482 771.021C-846.442 736.095 -715.006 969.891 -682.966 934.965C-650.926 900.039 -782.397 666.281 -750.357 631.356C-718.318 596.43 -586.881 830.225 -554.841 795.299C-522.802 760.374 -654.273 526.616 -622.233 491.69C-590.193 456.764 -458.757 690.559 -426.717 655.634C-394.677 620.708 -526.148 386.95 -494.125 352.043C-462.103 317.136 -330.632 550.894 -298.541 515.912C-266.45 480.93 -397.972 247.228 -365.949 212.321C-333.927 177.414 -202.439 411.153 -170.485 376.321C-138.531 341.489 -269.916 107.637 -237.791 72.618C-205.665 37.5987 -74.3143 271.487 -42.2918 236.58C-10.2692 201.673 -141.706 -32.122 -109.683 -67.029C-77.6605 -101.936 53.793 131.841 85.8327 96.9148C117.872 61.989 -13.5983 -171.769 18.4242 -206.676C50.4468 -241.583 181.918 -7.8252 213.957 -42.751C245.997 -77.6768 114.526 -311.435 146.566 -346.36C178.606 -381.286 310.042 -147.491 342.082 -182.417C374.122 -217.342 242.651 -451.1 274.691 -486.026C306.73 -520.952 438.167 -287.156 470.206 -322.082C502.246 -357.008 370.775 -590.766 402.815 -625.692C434.855 -660.618 566.291 -426.822 598.331 -461.748C630.371 -496.674 498.917 -730.45 530.94 -765.357C562.962 -800.265 694.433 -566.507 726.456 -601.414C758.478 -636.321 627.042 -870.116 659.064 -905.023C691.087 -939.93 822.558 -706.172 854.597 -741.098C886.637 -776.024 755.166 -1009.78 787.206 -1044.71C819.246 -1079.63 950.699 -845.857 982.722 -880.764C1014.74 -915.671 883.308 -1149.47 915.347 -1184.39C947.387 -1219.32 1078.84 -985.541 1110.88 -1020.47C1142.92 -1055.39 1011.47 -1289.17 1043.49 -1324.08" stroke="#A0A3BD" stroke-opacity="0.1" stroke-width="1.3286" stroke-miterlimit="10"/>
<path d="M-532.636 1753.6C-500.614 1718.69 -369.16 1952.47 -337.121 1917.54C-305.081 1882.61 -436.552 1648.86 -404.512 1613.93C-372.472 1579 -241.036 1812.8 -208.996 1777.87C-176.956 1742.95 -308.427 1509.19 -276.387 1474.26C-244.348 1439.34 -112.911 1673.13 -80.8715 1638.21C-48.8318 1603.28 -180.303 1369.52 -148.263 1334.6C-116.223 1299.67 15.2133 1533.47 47.2531 1498.54C79.2928 1463.62 -52.178 1229.86 -20.1554 1194.95C11.8671 1160.04 143.338 1393.8 175.429 1358.82C207.52 1323.84 75.998 1090.14 108.021 1055.23C140.043 1020.32 271.531 1254.06 303.485 1219.23C335.439 1184.4 204.054 950.546 236.179 915.527C268.305 880.507 399.656 1114.4 431.678 1079.49C463.701 1044.58 332.264 810.787 364.287 775.88C396.309 740.973 527.763 974.749 559.803 939.824C591.842 904.898 460.372 671.14 492.394 636.233C524.417 601.326 655.888 835.084 687.927 800.158C719.967 765.232 588.496 531.474 620.536 496.548C652.576 461.623 784.012 695.418 816.052 660.492C848.092 625.566 716.621 391.808 748.66 356.883C780.7 321.957 912.137 555.752 944.176 520.826C976.216 485.901 844.745 252.143 876.785 217.217C908.825 182.291 1040.26 416.087 1072.3 381.161C1104.34 346.235 972.887 112.458 1004.91 77.5513C1036.93 42.6442 1168.4 276.402 1200.43 241.495C1232.45 206.588 1101.01 -27.2073 1133.03 -62.1143C1165.06 -97.0214 1296.53 136.736 1328.57 101.811C1360.61 66.8849 1229.14 -166.873 1261.18 -201.799C1293.22 -236.725 1424.67 -2.94794 1456.69 -37.855C1488.71 -72.7621 1357.28 -306.557 1389.32 -341.483C1421.36 -376.409 1552.81 -142.632 1584.85 -177.558C1616.89 -212.484 1485.44 -446.26 1517.46 -481.168" stroke="#A0A3BD" stroke-opacity="0.1" stroke-width="1.3286" stroke-miterlimit="10"/>
<path d="M145.498 2959.59C177.52 2924.68 308.974 3158.46 341.013 3123.53C373.053 3088.61 241.582 2854.85 273.622 2819.92C305.662 2785 437.098 3018.79 469.138 2983.87C501.178 2948.94 369.707 2715.18 401.747 2680.26C433.786 2645.33 565.223 2879.13 597.263 2844.2C629.302 2809.27 497.831 2575.52 529.871 2540.59C561.911 2505.66 693.347 2739.46 725.387 2704.53C757.427 2669.61 625.956 2435.85 657.979 2400.94C690.001 2366.04 821.472 2599.79 853.563 2564.81C885.654 2529.83 754.132 2296.13 786.155 2261.22C818.177 2226.31 949.665 2460.05 981.619 2425.22C1013.57 2390.39 882.188 2156.54 914.313 2121.52C946.439 2086.5 1077.79 2320.39 1109.81 2285.48C1141.83 2250.57 1010.4 2016.78 1042.42 1981.87C1074.44 1946.96 1205.9 2180.74 1237.94 2145.82C1269.98 2110.89 1138.51 1877.13 1170.53 1842.22C1202.55 1807.32 1334.02 2041.08 1366.06 2006.15C1398.1 1971.22 1266.63 1737.47 1298.67 1702.54C1330.71 1667.61 1462.15 1901.41 1494.19 1866.48C1526.23 1831.56 1394.75 1597.8 1426.79 1562.87C1458.83 1527.95 1590.27 1761.74 1622.31 1726.82C1654.35 1691.89 1522.88 1458.13 1554.92 1423.21C1586.96 1388.28 1718.4 1622.08 1750.43 1587.15C1782.47 1552.23 1651.02 1318.45 1683.04 1283.54C1715.07 1248.64 1846.54 1482.39 1878.56 1447.49C1910.58 1412.58 1779.15 1178.78 1811.17 1143.88C1843.19 1108.97 1974.66 1342.73 2006.7 1307.8C2038.74 1272.88 1907.27 1039.12 1939.31 1004.19C1971.35 969.267 2102.8 1203.04 2134.83 1168.14C2166.85 1133.23 2035.41 899.435 2067.45 864.509C2099.49 829.583 2230.94 1063.36 2262.98 1028.43C2295.02 993.508 2163.57 759.731 2195.59 724.824" stroke="#A0A3BD" stroke-opacity="0.1" stroke-width="1.3286" stroke-miterlimit="10"/>
<path d="M-736.798 1390.52C-704.776 1355.61 -573.322 1589.38 -541.282 1554.46C-509.243 1519.53 -640.714 1285.78 -608.674 1250.85C-576.634 1215.92 -445.198 1449.72 -413.158 1414.79C-381.118 1379.87 -512.589 1146.11 -480.549 1111.18C-448.51 1076.26 -317.073 1310.05 -285.033 1275.13C-252.994 1240.2 -384.464 1006.44 -352.425 971.518C-320.385 936.593 -188.949 1170.39 -156.909 1135.46C-124.869 1100.54 -256.34 866.778 -224.317 831.871C-192.295 796.964 -60.824 1030.72 -28.7328 995.74C3.35844 960.758 -128.164 727.057 -96.1413 692.15C-64.1187 657.242 67.3692 890.982 99.3231 856.149C131.277 821.317 -0.10793 587.466 32.0176 552.446C64.1431 517.427 195.494 751.316 227.516 716.409C259.539 681.502 128.102 447.706 160.125 412.799C192.148 377.892 323.601 611.669 355.641 576.743C387.681 541.817 256.21 308.06 288.232 273.152C320.255 238.245 451.726 472.003 483.765 437.077C515.805 402.152 384.334 168.394 416.374 133.468C448.414 98.5423 579.85 332.338 611.89 297.412C643.93 262.486 512.459 28.7281 544.499 -6.19764C576.538 -41.1234 707.975 192.672 740.014 157.746C772.054 122.82 640.584 -110.938 672.623 -145.863C704.663 -180.789 836.099 53.0062 868.139 18.0804C900.179 -16.8454 768.725 -250.622 800.748 -285.529C832.77 -320.436 964.241 -86.6783 996.264 -121.585C1028.29 -156.492 896.85 -390.288 928.872 -425.195C960.895 -460.102 1092.37 -226.344 1124.41 -261.27C1156.45 -296.195 1024.97 -529.953 1057.01 -564.879C1089.05 -599.805 1220.51 -366.028 1252.53 -400.935C1284.55 -435.842 1153.12 -669.638 1185.16 -704.563C1217.2 -739.489 1348.65 -505.713 1380.69 -540.639C1412.73 -575.564 1281.27 -809.341 1313.3 -844.248" stroke="#A0A3BD" stroke-opacity="0.1" stroke-width="1.3286" stroke-miterlimit="10"/>
<path d="M-58.6643 2596.5C-26.6418 2561.6 104.812 2795.37 136.852 2760.45C168.891 2725.52 37.4205 2491.76 69.4602 2456.84C101.5 2421.91 232.936 2655.71 264.976 2620.78C297.016 2585.86 165.545 2352.1 197.585 2317.17C229.625 2282.25 361.061 2516.04 393.101 2481.12C425.14 2446.19 293.67 2212.43 325.709 2177.51C357.749 2142.58 489.186 2376.38 521.225 2341.45C553.265 2306.52 421.794 2072.77 453.817 2037.86C485.839 2002.95 617.31 2236.71 649.401 2201.73C681.492 2166.75 549.97 1933.04 581.993 1898.14C614.015 1863.23 745.503 2096.97 777.457 2062.14C809.411 2027.31 678.026 1793.45 710.152 1758.43C742.277 1723.42 873.628 1957.3 905.65 1922.4C937.673 1887.49 806.236 1653.69 838.259 1618.79C870.282 1583.88 1001.74 1817.66 1033.77 1782.73C1065.81 1747.81 934.344 1514.05 966.366 1479.14C998.389 1444.23 1129.86 1677.99 1161.9 1643.07C1193.94 1608.14 1062.47 1374.38 1094.51 1339.46C1126.55 1304.53 1257.98 1538.33 1290.02 1503.4C1322.06 1468.47 1190.59 1234.72 1222.63 1199.79C1254.67 1164.86 1386.11 1398.66 1418.15 1363.73C1450.19 1328.81 1318.72 1095.05 1350.76 1060.12C1382.8 1025.2 1514.23 1258.99 1546.27 1224.07C1578.31 1189.14 1446.86 955.366 1478.88 920.459C1510.9 885.552 1642.38 1119.31 1674.4 1084.4C1706.42 1049.5 1574.98 815.701 1607.01 780.794C1639.03 745.887 1770.5 979.644 1802.54 944.719C1834.58 909.793 1703.11 676.035 1735.15 641.109C1767.19 606.183 1898.64 839.96 1930.66 805.053C1962.69 770.146 1831.25 536.351 1863.29 501.425C1895.33 466.499 2026.78 700.276 2058.82 665.35C2090.86 630.424 1959.41 396.647 1991.43 361.74" stroke="#A0A3BD" stroke-opacity="0.1" stroke-width="1.3286" stroke-miterlimit="10"/>
<path d="M-262.827 2233.42C-230.804 2198.52 -99.3507 2432.29 -67.311 2397.37C-35.2713 2362.44 -166.742 2128.68 -134.702 2093.76C-102.663 2058.83 28.7738 2292.63 60.8135 2257.7C92.8532 2222.78 -38.6175 1989.02 -6.5778 1954.09C25.4619 1919.17 156.898 2152.96 188.938 2118.04C220.978 2083.11 89.507 1849.35 121.547 1814.43C153.586 1779.5 285.023 2013.3 317.063 1978.37C349.102 1943.44 217.632 1709.69 249.654 1674.78C281.677 1639.87 413.147 1873.63 445.239 1838.65C477.33 1803.67 345.808 1569.96 377.83 1535.06C409.853 1500.15 541.341 1733.89 573.295 1699.06C605.248 1664.22 473.864 1430.37 505.989 1395.35C538.115 1360.33 669.465 1594.22 701.488 1559.32C733.51 1524.41 602.074 1290.61 634.096 1255.71C666.119 1220.8 797.573 1454.58 829.612 1419.65C861.652 1384.73 730.181 1150.97 762.204 1116.06C794.226 1081.15 925.697 1314.91 957.737 1279.99C989.777 1245.06 858.306 1011.3 890.345 976.376C922.385 941.45 1053.82 1175.25 1085.86 1140.32C1117.9 1105.39 986.43 871.636 1018.47 836.71C1050.51 801.784 1181.95 1035.58 1213.99 1000.65C1246.03 965.728 1114.55 731.97 1146.59 697.044C1178.63 662.119 1310.07 895.914 1342.11 860.988C1374.15 826.062 1242.7 592.286 1274.72 557.379C1306.74 522.472 1438.21 756.229 1470.24 721.322C1502.26 686.415 1370.82 452.62 1402.84 417.713C1434.87 382.806 1566.34 616.564 1598.38 581.638C1630.42 546.712 1498.95 312.954 1530.99 278.029C1563.03 243.103 1694.48 476.879 1726.5 441.972C1758.52 407.065 1627.09 173.27 1659.13 138.344C1691.17 103.419 1822.62 337.195 1854.66 302.269C1886.7 267.343 1755.25 33.5669 1787.27 -1.34016" stroke="#A0A3BD" stroke-opacity="0.1" stroke-width="1.3286" stroke-miterlimit="10"/>
<path d="M-1072.41 793.656C-1040.39 758.749 -908.938 992.526 -876.898 957.6C-844.859 922.674 -976.329 688.917 -944.29 653.991C-912.25 619.065 -780.814 852.86 -748.774 817.934C-716.734 783.009 -848.205 549.251 -816.165 514.325C-784.125 479.399 -652.689 713.195 -620.649 678.269C-588.61 643.343 -720.08 409.585 -688.041 374.659C-656.001 339.734 -524.564 573.529 -492.525 538.603C-460.485 503.677 -591.956 269.919 -559.933 235.012C-527.911 200.105 -396.44 433.863 -364.349 398.881C-332.258 363.899 -463.78 130.198 -431.757 95.2906C-399.735 60.3835 -268.247 294.123 -236.293 259.29C-204.339 224.458 -335.724 -9.39322 -303.598 -44.4125C-271.473 -79.4318 -140.122 154.457 -108.1 119.55C-76.0771 84.6428 -207.514 -149.152 -175.491 -184.06C-143.468 -218.967 -12.0148 14.81 20.0249 -20.1157C52.0646 -55.0415 -79.4062 -288.799 -47.3836 -323.706C-15.3611 -358.614 116.11 -124.856 148.149 -159.781C180.189 -194.707 48.7183 -428.465 80.7581 -463.391C112.798 -498.317 244.234 -264.521 276.274 -299.447C308.314 -334.373 176.843 -568.131 208.883 -603.057C240.922 -637.982 372.359 -404.187 404.398 -439.113C436.438 -474.039 304.968 -707.797 337.007 -742.722C369.047 -777.648 500.483 -543.853 532.523 -578.779C564.563 -613.704 433.109 -847.481 465.132 -882.388C497.154 -917.295 628.625 -683.537 660.648 -718.444C692.67 -753.351 561.234 -987.147 593.256 -1022.05C625.279 -1056.96 756.75 -823.203 788.789 -858.129C820.829 -893.054 689.358 -1126.81 721.398 -1161.74C753.438 -1196.66 884.891 -962.887 916.914 -997.794C948.936 -1032.7 817.5 -1266.5 849.54 -1301.42C881.579 -1336.35 1013.03 -1102.57 1045.07 -1137.5C1077.11 -1172.42 945.659 -1406.2 977.681 -1441.11" stroke="#A0A3BD" stroke-opacity="0.1" stroke-width="1.898" stroke-miterlimit="10"/>
<path d="M-598.443 1636.57C-566.42 1601.66 -434.967 1835.43 -402.927 1800.51C-370.887 1765.58 -502.358 1531.83 -470.318 1496.9C-438.279 1461.97 -306.842 1695.77 -274.802 1660.84C-242.763 1625.92 -374.233 1392.16 -342.194 1357.23C-310.154 1322.31 -178.718 1556.1 -146.678 1521.18C-114.638 1486.25 -246.109 1252.49 -214.069 1217.57C-182.03 1182.64 -50.593 1416.44 -18.5533 1381.51C13.4864 1346.59 -117.984 1112.83 -85.9618 1077.92C-53.9393 1043.01 77.5315 1276.77 109.623 1241.79C141.714 1206.81 10.1916 973.106 42.2142 938.199C74.2368 903.292 205.725 1137.03 237.679 1102.2C269.633 1067.37 138.248 833.516 170.373 798.496C202.499 763.477 333.849 997.366 365.872 962.459C397.894 927.552 266.458 693.756 298.48 658.849C330.503 623.942 461.957 857.719 493.996 822.793C526.036 787.867 394.565 554.109 426.588 519.202C458.61 484.295 590.081 718.053 622.121 683.127C654.161 648.201 522.69 414.444 554.729 379.518C586.769 344.592 718.206 578.387 750.245 543.462C782.285 508.536 650.814 274.778 682.854 239.852C714.894 204.926 846.33 438.722 878.37 403.796C910.41 368.87 778.939 135.112 810.979 100.186C843.018 65.2606 974.455 299.056 1006.49 264.13C1038.53 229.204 907.081 -4.57216 939.103 -39.4792C971.126 -74.3863 1102.6 159.372 1134.62 124.464C1166.64 89.5574 1035.21 -144.238 1067.23 -179.145C1099.25 -214.052 1230.72 19.7059 1262.76 -15.2199C1294.8 -50.1457 1163.33 -283.904 1195.37 -318.829C1227.41 -353.755 1358.86 -119.978 1390.89 -154.886C1422.91 -189.793 1291.47 -423.588 1323.51 -458.514C1355.55 -493.439 1487 -259.663 1519.04 -294.589C1551.08 -329.515 1419.63 -563.291 1451.65 -598.198" stroke="#A0A3BD" stroke-opacity="0.1" stroke-width="1.3286" stroke-miterlimit="10"/>
<path d="M79.6912 2842.56C111.714 2807.65 243.167 3041.42 275.207 3006.5C307.247 2971.57 175.776 2737.82 207.816 2702.89C239.855 2667.96 371.292 2901.76 403.332 2866.83C435.371 2831.91 303.901 2598.15 335.94 2563.22C367.98 2528.3 499.416 2762.09 531.456 2727.17C563.496 2692.24 432.025 2458.48 464.065 2423.56C496.105 2388.63 627.541 2622.43 659.581 2587.5C691.62 2552.58 560.15 2318.82 592.172 2283.91C624.195 2249 755.666 2482.76 787.757 2447.78C819.848 2412.8 688.326 2179.1 720.348 2144.19C752.371 2109.28 883.859 2343.02 915.813 2308.19C947.767 2273.36 816.382 2039.51 848.507 2004.49C880.633 1969.47 1011.98 2203.36 1044.01 2168.45C1076.03 2133.54 944.592 1899.75 976.615 1864.84C1008.64 1829.93 1140.09 2063.71 1172.13 2028.78C1204.17 1993.86 1072.7 1760.1 1104.72 1725.19C1136.74 1690.29 1268.22 1924.04 1300.25 1889.12C1332.29 1854.19 1200.82 1620.43 1232.86 1585.51C1264.9 1550.58 1396.34 1784.38 1428.38 1749.45C1460.42 1714.53 1328.95 1480.77 1360.99 1445.84C1393.03 1410.92 1524.46 1644.71 1556.5 1609.79C1588.54 1574.86 1457.07 1341.1 1489.11 1306.18C1521.15 1271.25 1652.59 1505.05 1684.63 1470.12C1716.67 1435.19 1585.21 1201.42 1617.24 1166.51C1649.26 1131.6 1780.73 1365.36 1812.75 1330.45C1844.78 1295.55 1713.34 1061.75 1745.36 1026.85C1777.38 991.938 1908.86 1225.7 1940.89 1190.77C1972.93 1155.84 1841.46 922.086 1873.5 887.161C1905.54 852.235 2037 1086.01 2069.02 1051.1C2101.04 1016.2 1969.61 782.402 2001.65 747.476C2033.68 712.551 2165.14 946.327 2197.18 911.401C2229.22 876.475 2097.76 642.699 2129.79 607.792" stroke="#A0A3BD" stroke-opacity="0.1" stroke-width="1.3286" stroke-miterlimit="10"/>
<path d="M-802.604 1273.48C-770.582 1238.58 -639.128 1472.35 -607.089 1437.43C-575.049 1402.5 -706.52 1168.74 -674.48 1133.82C-642.44 1098.89 -511.004 1332.69 -478.964 1297.76C-446.924 1262.84 -578.395 1029.08 -546.355 994.153C-514.316 959.227 -382.879 1193.02 -350.84 1158.1C-318.8 1123.17 -450.271 889.413 -418.231 854.487C-386.191 819.561 -254.755 1053.36 -222.715 1018.43C-190.675 983.505 -322.146 749.747 -290.123 714.84C-258.101 679.933 -126.63 913.691 -94.5389 878.709C-62.4477 843.727 -193.97 610.025 -161.947 575.118C-129.925 540.211 1.56307 773.95 33.517 739.118C65.4709 704.286 -65.9141 470.435 -33.7886 435.415C-1.66304 400.396 129.688 634.285 161.71 599.378C193.733 564.471 62.2963 330.675 94.3189 295.768C126.341 260.861 257.795 494.638 289.835 459.712C321.874 424.786 190.404 191.028 222.426 156.121C254.449 121.214 385.92 354.972 417.959 320.046C449.999 285.121 318.528 51.3628 350.568 16.437C382.608 -18.4888 514.044 215.306 546.084 180.381C578.124 145.455 446.653 -88.303 478.692 -123.229C510.732 -158.155 642.169 75.6408 674.208 40.715C706.248 5.78927 574.777 -227.969 606.817 -262.895C638.857 -297.82 770.293 -64.0249 802.333 -98.9507C834.373 -133.876 702.919 -367.653 734.942 -402.56C766.964 -437.467 898.435 -203.709 930.458 -238.616C962.48 -273.524 831.044 -507.319 863.066 -542.226C895.089 -577.133 1026.56 -343.375 1058.6 -378.301C1090.64 -413.227 959.168 -646.985 991.208 -681.91C1023.25 -716.836 1154.7 -483.059 1186.72 -517.966C1218.75 -552.874 1087.31 -786.669 1119.35 -821.595C1151.39 -856.52 1282.84 -622.744 1314.88 -657.67C1346.92 -692.595 1215.47 -926.372 1247.49 -961.279" stroke="#A0A3BD" stroke-opacity="0.1" stroke-width="1.3286" stroke-miterlimit="10"/>
<path d="M-124.471 2479.47C-92.4489 2444.57 39.0047 2678.34 71.0444 2643.42C103.084 2608.49 -28.3866 2374.73 3.65312 2339.81C35.6928 2304.88 167.129 2538.68 199.169 2503.75C231.209 2468.82 99.738 2235.07 131.778 2200.14C163.817 2165.22 295.254 2399.01 327.294 2364.09C359.333 2329.16 227.862 2095.4 259.902 2060.48C291.942 2025.55 423.378 2259.35 455.418 2224.42C487.458 2189.49 355.987 1955.74 388.01 1920.83C420.032 1885.92 551.503 2119.68 583.594 2084.7C615.685 2049.72 484.163 1816.01 516.186 1781.11C548.208 1746.2 679.696 1979.94 711.65 1945.11C743.604 1910.27 612.219 1676.42 644.344 1641.4C676.47 1606.38 807.821 1840.27 839.843 1805.37C871.866 1770.46 740.429 1536.66 772.452 1501.76C804.474 1466.85 935.928 1700.63 967.968 1665.7C1000.01 1630.77 868.537 1397.02 900.559 1362.11C932.582 1327.2 1064.05 1560.96 1096.09 1526.03C1128.13 1491.11 996.661 1257.35 1028.7 1222.43C1060.74 1187.5 1192.18 1421.29 1224.22 1386.37C1256.26 1351.44 1124.79 1117.69 1156.83 1082.76C1188.87 1047.83 1320.3 1281.63 1352.34 1246.7C1384.38 1211.78 1252.91 978.02 1284.95 943.094C1316.99 908.168 1448.43 1141.96 1480.47 1107.04C1512.51 1072.11 1381.05 838.335 1413.07 803.428C1445.1 768.521 1576.57 1002.28 1608.59 967.372C1640.61 932.465 1509.18 698.67 1541.2 663.763C1573.22 628.856 1704.69 862.613 1736.73 827.688C1768.77 792.762 1637.3 559.004 1669.34 524.078C1701.38 489.152 1832.83 722.929 1864.86 688.022C1896.88 653.115 1765.44 419.32 1797.48 384.394C1829.52 349.468 1960.98 583.245 1993.02 548.319C2025.06 513.393 1893.6 279.616 1925.62 244.709" stroke="#A0A3BD" stroke-opacity="0.1" stroke-width="1.3286" stroke-miterlimit="10"/>
<path d="M-328.635 2116.39C-296.612 2081.48 -165.158 2315.26 -133.119 2280.33C-101.079 2245.41 -232.55 2011.65 -200.51 1976.73C-168.47 1941.8 -37.0338 2175.59 -4.99409 2140.67C27.0456 2105.74 -104.425 1871.99 -72.3854 1837.06C-40.3457 1802.13 91.0907 2035.93 123.13 2001C155.17 1966.08 23.6994 1732.32 55.7391 1697.39C87.7788 1662.47 219.215 1896.26 251.255 1861.34C283.295 1826.41 151.824 1592.65 183.847 1557.75C215.869 1522.84 347.34 1756.6 379.431 1721.62C411.522 1686.63 280 1452.93 312.023 1418.03C344.045 1383.12 475.533 1616.86 507.487 1582.03C539.441 1547.19 408.056 1313.34 440.181 1278.32C472.307 1243.3 603.658 1477.19 635.68 1442.28C667.703 1407.38 536.266 1173.58 568.289 1138.68C600.311 1103.77 731.765 1337.54 763.805 1302.62C795.844 1267.69 664.374 1033.94 696.396 999.028C728.419 964.121 859.89 1197.88 891.929 1162.95C923.969 1128.03 792.498 894.27 824.538 859.344C856.578 824.418 988.014 1058.21 1020.05 1023.29C1052.09 988.362 920.623 754.604 952.662 719.678C984.702 684.752 1116.14 918.548 1148.18 883.622C1180.22 848.696 1048.75 614.938 1080.79 580.012C1112.83 545.087 1244.26 778.882 1276.3 743.956C1308.34 709.03 1176.89 475.254 1208.91 440.347C1240.93 405.44 1372.4 639.197 1404.43 604.29C1436.45 569.383 1305.01 335.588 1337.04 300.681C1369.06 265.774 1500.53 499.532 1532.57 464.606C1564.61 429.68 1433.14 195.922 1465.18 160.997C1497.22 126.071 1628.67 359.847 1660.69 324.94C1692.72 290.033 1561.28 56.2381 1593.32 21.3123C1625.36 -13.6134 1756.81 220.163 1788.85 185.237C1820.89 150.311 1689.44 -83.4651 1721.46 -118.372" stroke="#A0A3BD" stroke-opacity="0.1" stroke-width="1.3286" stroke-miterlimit="10"/>
<path d="M-940.96 1027.43C-908.937 992.526 -777.484 1226.3 -745.444 1191.38C-713.404 1156.45 -844.875 922.693 -812.835 887.767C-780.796 852.841 -649.359 1086.64 -617.32 1051.71C-585.28 1016.79 -716.751 783.027 -684.711 748.101C-652.671 713.176 -521.235 946.971 -489.195 912.045C-457.155 877.119 -588.626 643.361 -556.586 608.436C-524.547 573.51 -393.11 807.305 -361.07 772.379C-329.031 737.454 -460.501 503.696 -428.479 468.789C-396.456 433.882 -264.986 667.639 -232.894 632.658C-200.803 597.676 -332.325 363.974 -300.303 329.067C-268.28 294.16 -136.792 527.899 -104.838 493.067C-72.8846 458.234 -204.27 224.383 -172.144 189.364C-140.019 154.344 -8.66783 388.233 23.3547 353.326C55.3773 318.419 -76.0592 84.6238 -44.0366 49.7167C-12.014 14.8097 119.44 248.586 151.479 213.661C183.519 178.735 52.0482 -55.0231 84.0707 -89.9302C116.093 -124.837 247.564 108.921 279.604 73.9948C311.644 39.069 180.173 -194.689 212.212 -229.615C244.252 -264.54 375.689 -30.7451 407.728 -65.6708C439.768 -100.597 308.297 -334.355 340.337 -369.28C372.377 -404.206 503.813 -170.411 535.853 -205.336C567.893 -240.262 436.422 -474.02 468.462 -508.946C500.501 -543.872 631.938 -310.076 663.977 -345.002C696.017 -379.928 564.564 -613.705 596.586 -648.612C628.609 -683.519 760.079 -449.761 792.102 -484.668C824.125 -519.575 692.688 -753.37 724.711 -788.277C756.733 -823.184 888.204 -589.427 920.244 -624.352C952.283 -659.278 820.813 -893.036 852.852 -927.962C884.892 -962.888 1016.35 -729.111 1048.37 -764.018C1080.39 -798.925 948.954 -1032.72 980.994 -1067.65C1013.03 -1102.57 1144.49 -868.795 1176.53 -903.721C1208.57 -938.647 1077.11 -1172.42 1109.14 -1207.33" stroke="#A0A3BD" stroke-opacity="0.1" stroke-width="1.3286" stroke-miterlimit="10"/>
<path d="M-466.989 1870.34C-434.966 1835.44 -303.513 2069.21 -271.473 2034.29C-239.433 1999.36 -370.904 1765.6 -338.864 1730.68C-306.824 1695.75 -175.388 1929.55 -143.348 1894.62C-111.309 1859.69 -242.779 1625.94 -210.74 1591.01C-178.7 1556.08 -47.2635 1789.88 -15.2238 1754.95C16.8159 1720.03 -114.655 1486.27 -82.6151 1451.35C-50.5754 1416.42 80.8611 1650.21 112.901 1615.29C144.94 1580.36 13.4697 1346.61 45.4923 1311.7C77.5148 1276.79 208.986 1510.55 241.077 1475.57C273.168 1440.59 141.646 1206.88 173.668 1171.98C205.691 1137.07 337.179 1370.81 369.133 1335.98C401.087 1301.14 269.702 1067.29 301.827 1032.27C333.953 997.254 465.303 1231.14 497.326 1196.24C529.348 1161.33 397.912 927.533 429.935 892.626C461.957 857.719 593.411 1091.5 625.45 1056.57C657.49 1021.64 526.019 787.886 558.042 752.979C590.064 718.072 721.535 951.83 753.575 916.904C785.615 881.978 654.144 648.221 686.184 613.295C718.223 578.369 849.66 812.164 881.7 777.239C913.739 742.313 782.268 508.555 814.308 473.629C846.348 438.703 977.784 672.499 1009.82 637.573C1041.86 602.647 910.393 368.889 942.433 333.963C974.473 299.038 1105.91 532.833 1137.95 497.907C1169.99 462.981 1038.53 229.205 1070.56 194.298C1102.58 159.391 1234.05 393.149 1266.07 358.241C1298.1 323.334 1166.66 89.5392 1198.68 54.6321C1230.7 19.725 1362.18 253.483 1394.21 218.557C1426.25 183.631 1294.78 -50.1266 1326.82 -85.0524C1358.86 -119.978 1490.32 113.799 1522.34 78.8914C1554.36 43.9844 1422.93 -189.811 1454.97 -224.737C1487 -259.662 1618.46 -25.886 1650.5 -60.8118C1682.54 -95.7375 1551.08 -329.514 1583.11 -364.421" stroke="#A0A3BD" stroke-opacity="0.1" stroke-width="1.3286" stroke-miterlimit="10"/>
<path d="M211.145 3076.33C243.167 3041.42 374.621 3275.2 406.661 3240.27C438.7 3205.35 307.23 2971.59 339.269 2936.66C371.309 2901.74 502.745 3135.53 534.785 3100.61C566.825 3065.68 435.354 2831.92 467.394 2797C499.434 2762.07 630.87 2995.87 662.91 2960.94C694.949 2926.02 563.479 2692.26 595.518 2657.33C627.558 2622.41 758.995 2856.2 791.034 2821.28C823.074 2786.35 691.603 2552.59 723.626 2517.69C755.648 2482.78 887.119 2716.54 919.21 2681.56C951.302 2646.57 819.779 2412.87 851.802 2377.96C883.824 2343.06 1015.31 2576.8 1047.27 2541.96C1079.22 2507.13 947.835 2273.28 979.961 2238.26C1012.09 2203.24 1143.44 2437.13 1175.46 2402.22C1207.48 2367.32 1076.05 2133.52 1108.07 2098.61C1140.09 2063.71 1271.54 2297.48 1303.58 2262.56C1335.62 2227.63 1204.15 1993.87 1236.18 1958.97C1268.2 1924.06 1399.67 2157.82 1431.71 2122.89C1463.75 2087.97 1332.28 1854.21 1364.32 1819.28C1396.36 1784.36 1527.79 2018.15 1559.83 1983.23C1591.87 1948.3 1460.4 1714.54 1492.44 1679.62C1524.48 1644.69 1655.92 1878.49 1687.96 1843.56C1720 1808.64 1588.53 1574.88 1620.57 1539.95C1652.61 1505.03 1784.04 1738.82 1816.08 1703.9C1848.12 1668.97 1716.67 1435.19 1748.69 1400.29C1780.71 1365.38 1912.18 1599.14 1944.21 1564.23C1976.23 1529.32 1844.79 1295.53 1876.82 1260.62C1908.84 1225.71 2040.31 1459.47 2072.35 1424.55C2104.39 1389.62 1972.92 1155.86 2004.96 1120.94C2037 1086.01 2168.45 1319.79 2200.47 1284.88C2232.5 1249.97 2101.06 1016.18 2133.1 981.252C2165.14 946.326 2296.59 1180.1 2328.63 1145.18C2360.67 1110.25 2229.22 876.474 2261.24 841.567" stroke="#A0A3BD" stroke-opacity="0.1" stroke-width="1.3286" stroke-miterlimit="10"/>
<path d="M-671.151 1507.26C-639.129 1472.35 -507.675 1706.13 -475.635 1671.2C-443.596 1636.28 -575.066 1402.52 -543.027 1367.59C-510.987 1332.67 -379.55 1566.46 -347.511 1531.54C-315.471 1496.61 -446.942 1262.86 -414.902 1227.93C-382.862 1193 -251.426 1426.8 -219.386 1391.87C-187.346 1356.95 -318.817 1123.19 -286.777 1088.26C-254.738 1053.34 -123.301 1287.13 -91.2616 1252.21C-59.2219 1217.28 -190.693 983.524 -158.67 948.617C-126.648 913.709 4.82325 1147.47 36.9145 1112.49C69.0057 1077.5 -62.5166 843.802 -30.494 808.895C1.52851 773.988 133.016 1007.73 164.97 972.895C196.924 938.062 65.5393 704.211 97.6648 669.192C129.79 634.172 261.141 868.061 293.164 833.154C325.186 798.247 193.75 564.452 225.772 529.545C257.795 494.638 389.248 728.414 421.288 693.488C453.328 658.563 321.857 424.805 353.88 389.898C385.902 354.991 517.373 588.748 549.413 553.823C581.452 518.897 449.982 285.139 482.021 250.213C514.061 215.288 645.497 449.083 677.537 414.157C709.577 379.231 578.106 145.473 610.146 110.548C642.186 75.6218 773.622 309.417 805.662 274.491C837.701 239.566 706.231 5.80762 738.27 -29.1182C770.31 -64.0439 901.747 169.751 933.786 134.826C965.826 99.8999 834.372 -133.877 866.395 -168.784C898.418 -203.691 1029.89 30.067 1061.91 -4.84009C1093.93 -39.7472 962.497 -273.542 994.519 -308.449C1026.54 -343.356 1158.01 -109.599 1190.05 -144.524C1222.09 -179.45 1090.62 -413.208 1122.66 -448.134C1154.7 -483.06 1286.15 -249.283 1318.18 -284.19C1350.2 -319.097 1218.76 -552.892 1250.8 -587.818C1282.84 -622.744 1414.3 -388.968 1446.34 -423.893C1478.38 -458.819 1346.92 -692.596 1378.94 -727.503" stroke="#A0A3BD" stroke-opacity="0.1" stroke-width="1.3286" stroke-miterlimit="10"/>
<path d="M6.98169 2713.25C39.0042 2678.35 170.458 2912.12 202.498 2877.2C234.537 2842.27 103.067 2608.51 135.106 2573.59C167.146 2538.66 298.582 2772.46 330.622 2737.53C362.662 2702.6 231.191 2468.85 263.231 2433.92C295.271 2399 426.707 2632.79 458.747 2597.87C490.786 2562.94 359.316 2329.18 391.355 2294.26C423.395 2259.33 554.832 2493.13 586.871 2458.2C618.911 2423.27 487.44 2189.52 519.463 2154.61C551.485 2119.7 682.956 2353.46 715.047 2318.48C747.138 2283.5 615.616 2049.79 647.639 2014.89C679.661 1979.98 811.149 2213.72 843.103 2178.89C875.057 2144.05 743.672 1910.2 775.798 1875.18C807.923 1840.16 939.274 2074.05 971.296 2039.15C1003.32 2004.24 871.882 1770.44 903.905 1735.54C935.928 1700.63 1067.38 1934.41 1099.42 1899.48C1131.46 1864.55 999.99 1630.8 1032.01 1595.89C1064.03 1560.98 1195.51 1794.74 1227.55 1759.81C1259.59 1724.89 1128.11 1491.13 1160.15 1456.21C1192.19 1421.28 1323.63 1655.07 1355.67 1620.15C1387.71 1585.22 1256.24 1351.47 1288.28 1316.54C1320.32 1281.61 1451.75 1515.41 1483.79 1480.48C1515.83 1445.56 1384.36 1211.8 1416.4 1176.87C1448.44 1141.95 1579.88 1375.74 1611.92 1340.82C1643.96 1305.89 1512.51 1072.12 1544.53 1037.21C1576.55 1002.3 1708.02 1236.06 1740.04 1201.15C1772.07 1166.24 1640.63 932.45 1672.65 897.543C1704.67 862.636 1836.15 1096.39 1868.19 1061.47C1900.23 1026.54 1768.75 792.784 1800.79 757.858C1832.83 722.932 1964.29 956.709 1996.31 921.802C2028.33 886.895 1896.9 653.1 1928.94 618.174C1960.98 583.248 2092.43 817.025 2124.47 782.099C2156.51 747.173 2025.05 513.396 2057.08 478.489" stroke="#A0A3BD" stroke-opacity="0.1" stroke-width="1.3286" stroke-miterlimit="10"/>
<path d="M-197.18 2350.17C-165.158 2315.26 -33.704 2549.04 -1.6643 2514.11C30.3754 2479.19 -101.095 2245.43 -69.0556 2210.5C-37.0159 2175.58 94.4205 2409.37 126.46 2374.45C158.5 2339.52 27.0292 2105.76 59.0689 2070.84C91.1087 2035.91 222.545 2269.71 254.585 2234.78C286.625 2199.85 155.154 1966.1 187.193 1931.17C219.233 1896.25 350.67 2130.04 382.709 2095.11C414.749 2060.19 283.278 1826.43 315.301 1791.52C347.323 1756.62 478.794 1990.37 510.885 1955.39C542.977 1920.41 411.454 1686.71 443.477 1651.8C475.499 1616.9 606.987 1850.63 638.941 1815.8C670.895 1780.97 539.51 1547.12 571.636 1512.1C603.761 1477.08 735.112 1710.97 767.135 1676.06C799.157 1641.15 667.721 1407.36 699.743 1372.45C731.766 1337.55 863.219 1571.32 895.259 1536.4C927.299 1501.47 795.828 1267.71 827.851 1232.81C859.873 1197.9 991.344 1431.66 1023.38 1396.73C1055.42 1361.8 923.952 1128.05 955.992 1093.12C988.032 1058.2 1119.47 1291.99 1151.51 1257.06C1183.55 1222.14 1052.08 988.381 1084.12 953.455C1116.16 918.529 1247.59 1152.32 1279.63 1117.4C1311.67 1082.47 1180.2 848.715 1212.24 813.789C1244.28 778.864 1375.72 1012.66 1407.76 977.733C1439.8 942.807 1308.34 709.031 1340.37 674.124C1372.39 639.217 1503.86 872.975 1535.88 838.068C1567.9 803.16 1436.47 569.365 1468.49 534.458C1500.51 499.551 1631.98 733.309 1664.02 698.383C1696.06 663.457 1564.59 429.699 1596.63 394.774C1628.67 359.848 1760.13 593.625 1792.15 558.717C1824.17 523.81 1692.73 290.015 1724.77 255.089C1756.81 220.164 1888.27 453.94 1920.31 419.014C1952.35 384.089 1820.89 150.312 1852.92 115.405" stroke="#A0A3BD" stroke-opacity="0.1" stroke-width="1.3286" stroke-miterlimit="10"/>
</g>
<rect width="1728" height="971" stroke="black" stroke-width="8"/>
<defs>
<clipPath id="clip0_22_1058">
<rect width="1728" height="971" fill="white"/>
</clipPath>
</defs>
</svg>
