<svg width="200" height="38" viewBox="0 0 200 38" fill="none" xmlns="http://www.w3.org/2000/svg">
<g clip-path="url(#clip0_701_31)">
<path d="M4.27147 29.4212C3.53734 29.4228 2.81595 29.2295 2.18098 28.861C1.54602 28.4926 1.02024 27.9621 0.657363 27.324C0.300042 26.6903 0.121836 25.9713 0.141836 25.2441C0.161835 24.5169 0.379286 23.8088 0.770895 23.1957L8.21356 11.508C8.59448 10.8799 9.13531 10.3641 9.7808 10.0134C10.4263 9.66264 11.1533 9.48953 11.8876 9.51172C12.6213 9.5293 13.3372 9.74151 13.962 10.1266C14.5867 10.5118 15.098 11.056 15.4433 11.7036C16.1372 13.0155 16.0504 14.5939 15.2194 15.8255L7.7815 27.5132C7.40432 28.101 6.88486 28.584 6.27128 28.9175C5.65769 29.2511 4.96984 29.4243 4.27147 29.4212Z" fill="white"/>
<path d="M17.0374 29.4209C15.5363 29.4209 14.155 28.6182 13.4297 27.3284C13.0731 26.6964 12.8953 25.9793 12.9153 25.254C12.9353 24.5287 13.1524 23.8225 13.5432 23.2112L20.9717 11.5503C21.347 10.9133 21.8859 10.3883 22.5325 10.0298C23.179 9.67131 23.9098 9.49231 24.6488 9.51139C26.1626 9.5445 27.5344 10.3913 28.2282 11.7158C28.9173 13.0404 28.8164 14.6283 27.9602 15.8567L20.5333 27.5176C20.1573 28.1028 19.6399 28.584 19.029 28.9166C18.418 29.2493 17.7331 29.4227 17.0374 29.4209Z" fill="white"/>
<path d="M29.5184 29.5186C31.6345 29.5186 33.3501 27.8391 33.3501 25.7673C33.3501 23.6954 31.6345 22.0159 29.5184 22.0159C27.4022 22.0159 25.6866 23.6954 25.6866 25.7673C25.6866 27.8391 27.4022 29.5186 29.5184 29.5186Z" fill="white"/>
<path d="M195.978 22.2335C197.136 22.2335 197.828 23.0566 197.828 24.4048V29.025H199.4V24.2992C199.4 22.0064 198.32 20.6771 196.289 20.6771C195.494 20.6771 194.233 20.8947 193.481 22.3565C193.306 21.9253 193.018 21.5496 192.646 21.2692C192.275 20.9887 191.835 20.8141 191.372 20.7639C191.081 20.7106 190.785 20.6931 190.489 20.7118C189.843 20.7639 188.692 21.166 188.261 22.0774V20.8522H186.688V29.025H188.261V24.6146C188.261 22.8989 189.384 22.2335 190.508 22.2335C191.562 22.2335 192.254 23.0393 192.254 24.3875V29.025H193.818V24.6146C193.818 23.249 194.638 22.2177 195.978 22.2335ZM180.912 27.6595C181.631 27.6753 182.325 27.3883 182.828 26.8679C183.332 26.3475 183.6 25.6395 183.573 24.9126C183.573 23.2663 182.362 22.2335 180.912 22.2335C179.459 22.2335 178.25 23.2663 178.25 24.9126C178.222 25.6379 178.49 26.3444 178.991 26.8632C179.493 27.3835 180.183 27.6721 180.899 27.6595H180.912ZM180.912 29.1922C178.613 29.1922 176.694 27.4939 176.694 24.9031C176.694 22.3123 178.613 20.6677 180.912 20.6677C183.211 20.6677 185.146 22.3123 185.146 24.9031C185.146 27.4939 183.2 29.2001 180.901 29.2001L180.912 29.1922ZM168.597 24.9031L168.581 24.9126C168.581 22.3218 170.55 20.6771 172.865 20.6677C173.447 20.6564 174.024 20.7674 174.56 20.9934C175.096 21.2194 175.578 21.5554 175.976 21.9796L174.784 22.9951C174.531 22.7465 174.231 22.5505 173.902 22.4184C173.572 22.2863 173.22 22.2208 172.865 22.2256C171.414 22.2256 170.153 23.2585 170.153 24.9031C170.153 26.0148 170.814 27.0161 171.828 27.4419C172.842 27.8676 174.008 27.6311 174.784 26.8458L175.994 27.8613C175.594 28.2899 175.11 28.6299 174.571 28.8592C174.032 29.0884 173.451 29.2019 172.865 29.1922C170.568 29.1922 168.597 27.4939 168.597 24.9031ZM163.562 27.4561C163.56 27.3132 163.587 27.1714 163.64 27.0387C163.693 26.9061 163.772 26.7852 163.872 26.683C163.971 26.5808 164.09 26.4993 164.222 26.4431C164.353 26.3868 164.494 26.3571 164.637 26.3554C164.78 26.3571 164.921 26.3868 165.053 26.4431C165.184 26.4993 165.303 26.5808 165.403 26.683C165.503 26.7852 165.582 26.9061 165.635 27.0387C165.688 27.1714 165.714 27.3132 165.713 27.4561C165.699 27.7328 165.58 27.9937 165.38 28.1857C165.18 28.3776 164.914 28.4861 164.637 28.4889C164.36 28.4861 164.095 28.3776 163.895 28.1857C163.695 27.9937 163.576 27.7328 163.562 27.4561Z" fill="white"/>
<path fill-rule="evenodd" clip-rule="evenodd" d="M167.863 10.4622H162.264L158.339 20.5809L154.435 10.4622H148.836L155.643 26.4516L151.409 37.0229H156.967L167.863 10.4622ZM133.81 19.3557C133.81 21.9102 136.043 23.5912 138.236 23.5912C140.392 23.5912 142.51 22.0269 142.51 19.3541C142.51 16.6813 140.392 15.1155 138.236 15.1155C136.043 15.1155 133.81 16.7996 133.81 19.3557ZM142.51 28.2839V26.2608C141.374 27.9796 138.725 28.6292 137.366 28.6292C132.866 28.6292 128.364 25.0813 128.364 19.3541C128.364 13.6285 132.864 10.0806 137.366 10.0806C138.5 10.0806 141.149 10.459 142.51 12.4459V10.4685H147.729V28.2871L142.51 28.2839ZM126.878 28.2839H121.659V26.07C120.787 27.7099 118.672 28.6655 116.478 28.6655C111.938 28.6655 107.928 25.0403 107.928 19.4267C107.928 13.7074 111.938 10.0774 116.478 10.0774C118.669 10.0774 120.79 10.992 121.659 12.6335V0.755035H126.878V28.2839ZM121.545 19.3147C121.545 16.6435 119.617 15.0777 117.461 15.0777C115.229 15.0777 113.374 16.757 113.374 19.3147C113.374 21.9544 115.229 23.6258 117.46 23.6258C119.656 23.629 121.545 21.8724 121.545 19.3147ZM95.0231 18.8543C95.0231 16.1452 96.4234 15.2291 98.2761 15.2291C100.053 15.2291 101.34 16.4117 101.34 18.777V28.2807H106.597V17.6338C106.597 12.5594 104.099 10.0774 100.127 10.0774C98.0475 10.0774 95.9676 11.2601 95.0215 13.0546V10.4622H89.7675V28.2807H95.0231V18.8543ZM79.0924 28.5867C74.1001 28.5867 69.9357 24.9236 69.9357 19.3131C69.9357 13.6995 74.0954 10.0727 79.0924 10.0727C84.0894 10.0727 88.2853 13.6995 88.2853 19.3131C88.2853 24.9268 84.0846 28.5867 79.0924 28.5867ZM79.0924 23.3988C81.2842 23.3988 83.1022 21.7935 83.1022 19.3147C83.1022 16.91 81.2857 15.2685 79.0924 15.2685C78.5642 15.2602 78.04 15.3595 77.5514 15.5604C77.0629 15.7613 76.6204 16.0595 76.2509 16.4369C75.8792 16.8164 75.5876 17.2666 75.3934 17.761C75.1991 18.2554 75.1063 18.7837 75.1203 19.3147C75.1219 21.7967 76.9368 23.3988 79.0924 23.3988ZM60.5109 15.2306C62.061 15.2306 63.4234 16.4527 63.4234 18.7786V28.2839H68.6427V18.1636C68.6427 12.7833 66.0267 10.0743 61.8339 10.0743C60.5882 10.0743 58.2419 10.4527 56.5389 13.2406C55.5549 11.1797 53.6643 10.1106 50.8702 10.1106C49.9001 10.1056 48.9491 10.3802 48.1309 10.9014C47.3127 11.4227 46.6619 12.1685 46.2564 13.0498V10.4638H40.996V28.2823H46.2516V18.8543C46.2516 16.1452 47.7275 15.2291 49.3154 15.2291C50.8292 15.2291 52.1884 16.4117 52.2278 18.6635V28.2823H57.485V18.8543C57.485 16.2635 58.8474 15.2306 60.5109 15.2306Z" fill="white"/>
</g>
<defs>
<clipPath id="clip0_701_31">
<rect width="199.26" height="36.2678" fill="white" transform="translate(0.140503 0.755035)"/>
</clipPath>
</defs>
</svg>
