<svg width="32" height="32" viewBox="0 0 32 32" fill="none" xmlns="http://www.w3.org/2000/svg">
<rect width="32" height="32" rx="4" fill="#5978CF" fill-opacity="0.2"/>
<mask id="mask0_6_243" style="mask-type:alpha" maskUnits="userSpaceOnUse" x="8" y="8" width="16" height="16">
<rect x="8" y="8" width="16" height="16" fill="#D9D9D9"/>
</mask>
<g mask="url(#mask0_6_243)">
<path d="M13.3334 19.9999H18.6667V18.6666H13.3334V19.9999ZM13.3334 17.3333H18.6667V15.9999H13.3334V17.3333ZM12.0001 22.6666C11.6334 22.6666 11.3196 22.5361 11.0587 22.2753C10.7974 22.0139 10.6667 21.6999 10.6667 21.3333V10.6666C10.6667 10.2999 10.7974 9.98592 11.0587 9.72459C11.3196 9.4637 11.6334 9.33325 12.0001 9.33325H17.3334L21.3334 13.3333V21.3333C21.3334 21.6999 21.203 22.0139 20.9421 22.2753C20.6807 22.5361 20.3667 22.6666 20.0001 22.6666H12.0001ZM16.6667 13.9999V10.6666H12.0001V21.3333H20.0001V13.9999H16.6667Z" fill="#5978CF"/>
</g>
</svg>
