<svg width="1728" height="1075" viewBox="0 0 1728 1075" fill="none" xmlns="http://www.w3.org/2000/svg">
<g clip-path="url(#clip0_711_81)">
<path d="M699.972 1550.74C843.447 1460.31 926.833 1511.5 1070.31 1421.07C1213.78 1330.63 1130.4 1279.43 1273.83 1189.02C1417.26 1098.61 1500.69 1149.78 1644.17 1059.34C1787.64 968.905 1704.26 917.708 1847.73 827.27C1991.21 736.833 2074.59 788.03 2218.11 697.567C2361.62 607.103 2278.2 555.932 2421.67 465.494" stroke="#A0A3BD" stroke-opacity="0.05" stroke-width="2.9235" stroke-miterlimit="10"/>
<path d="M-931.062 532.62C-787.588 442.182 -704.202 493.38 -560.727 402.942C-417.252 312.505 -500.638 261.307 -357.204 170.895C-213.77 80.4839 -130.343 131.656 13.1321 41.218C156.607 -49.2196 73.221 -100.417 216.696 -190.855C360.171 -281.292 443.557 -230.095 587.073 -320.558C730.59 -411.022 647.162 -462.193 790.637 -552.631" stroke="#A0A3BD" stroke-opacity="0.05" stroke-width="2.9235" stroke-miterlimit="10"/>
<path d="M111.106 1170.47C254.581 1080.03 337.967 1131.23 481.442 1040.79C624.917 950.355 541.531 899.157 684.965 808.746C828.399 718.334 911.826 769.506 1055.3 679.068C1198.78 588.631 1115.39 537.433 1258.86 446.995C1402.34 356.558 1485.73 407.755 1629.24 317.292C1772.76 226.828 1689.33 175.657 1832.81 85.2191" stroke="#A0A3BD" stroke-opacity="0.05" stroke-width="2.9235" stroke-miterlimit="10"/>
<path d="M-417.821 846.147C-274.346 755.709 -190.96 806.907 -47.4851 716.47C95.9899 626.032 12.6039 574.834 156.038 484.423C299.471 394.011 382.899 445.183 526.374 354.745C669.849 264.308 586.462 213.11 729.937 122.673C873.412 32.2351 956.798 83.4327 1100.31 -7.0309C1243.83 -97.4945 1160.4 -148.666 1303.88 -239.104" stroke="#A0A3BD" stroke-opacity="0.05" stroke-width="2.9235" stroke-miterlimit="10"/>
<path d="M622.275 1493.57C765.75 1403.13 849.136 1454.33 992.611 1363.89C1136.09 1273.45 1052.7 1222.25 1196.13 1131.84C1339.57 1041.43 1422.99 1092.6 1566.47 1002.16C1709.94 911.726 1626.56 860.528 1770.03 770.091C1913.51 679.653 1996.89 730.851 2140.41 640.387C2283.93 549.924 2200.5 498.752 2343.97 408.315" stroke="#A0A3BD" stroke-opacity="0.05" stroke-width="2.9235" stroke-miterlimit="10"/>
<path d="M-678.853 699.584C-535.378 609.146 -451.992 660.344 -308.517 569.907C-165.042 479.469 -248.428 428.271 -104.994 337.86C38.4396 247.448 121.867 298.62 265.342 208.182C408.817 117.745 325.431 66.5472 468.906 -23.8904C612.381 -114.328 695.767 -63.1303 839.283 -153.594C982.799 -244.057 899.372 -295.229 1042.85 -385.667" stroke="#A0A3BD" stroke-opacity="0.05" stroke-width="2.9235" stroke-miterlimit="10"/>
<path d="M361.242 1336.36C504.717 1245.92 588.103 1297.12 731.578 1206.68C875.053 1116.24 791.667 1065.05 935.101 974.635C1078.53 884.224 1161.96 935.395 1305.44 844.958C1448.91 754.52 1365.53 703.323 1509 612.885C1652.48 522.447 1735.86 573.645 1879.38 483.182C2022.89 392.718 1939.47 341.546 2082.94 251.109" stroke="#A0A3BD" stroke-opacity="0.05" stroke-width="2.9235" stroke-miterlimit="10"/>
<path d="M-165.612 1013.11C-22.1368 922.674 61.2492 973.871 204.724 883.434C348.199 792.996 264.813 741.799 408.247 651.387C551.681 560.976 635.108 612.147 778.583 521.71C922.058 431.272 838.672 380.075 982.147 289.637C1125.62 199.199 1209.01 250.397 1352.52 159.933C1496.04 69.4699 1412.61 18.2983 1556.09 -72.1393" stroke="#A0A3BD" stroke-opacity="0.05" stroke-width="2.9235" stroke-miterlimit="10"/>
<path d="M874.484 1660.53C1017.96 1570.09 1101.35 1621.29 1244.82 1530.85C1388.3 1440.41 1304.91 1389.22 1448.34 1298.81C1591.78 1208.39 1675.2 1259.57 1818.68 1169.13C1962.15 1078.69 1878.77 1027.49 2022.24 937.055C2165.72 846.617 2249.1 897.815 2392.62 807.351C2536.14 716.888 2452.71 665.716 2596.18 575.279" stroke="#A0A3BD" stroke-opacity="0.05" stroke-width="2.9235" stroke-miterlimit="10"/>
<path d="M-965.925 503.054C-822.45 412.617 -739.064 463.814 -595.589 373.377C-452.114 282.939 -535.5 231.742 -392.066 141.33C-248.633 50.9185 -165.205 102.09 -21.7304 11.6525C121.745 -78.785 38.3585 -129.983 181.833 -220.42C325.308 -310.858 408.694 -259.66 552.211 -350.124C695.727 -440.587 612.3 -491.759 755.775 -582.196" stroke="#A0A3BD" stroke-opacity="0.05" stroke-width="2.9235" stroke-miterlimit="10"/>
<path d="M76.2454 1140.9C219.72 1050.47 303.106 1101.66 446.581 1011.23C590.056 920.789 506.67 869.592 650.104 779.18C793.538 688.769 876.965 739.94 1020.44 649.503C1163.91 559.065 1080.53 507.867 1224 417.43C1367.48 326.992 1450.86 378.19 1594.38 287.726C1737.9 197.263 1654.47 146.091 1797.95 55.6537" stroke="#A0A3BD" stroke-opacity="0.05" stroke-width="2.9235" stroke-miterlimit="10"/>
<path d="M-452.683 816.582C-309.208 726.144 -225.822 777.342 -82.3471 686.905C61.1278 596.467 -22.2582 545.269 121.176 454.858C264.609 364.446 348.037 415.618 491.512 325.18C634.986 234.743 551.6 183.545 695.075 93.1077C838.55 2.67012 921.936 53.8677 1065.45 -36.5958C1208.97 -127.059 1125.54 -178.231 1269.02 -268.669" stroke="#A0A3BD" stroke-opacity="0.05" stroke-width="2.9235" stroke-miterlimit="10"/>
<path d="M587.413 1464C730.888 1373.56 814.274 1424.76 957.749 1334.32C1101.22 1243.88 1017.84 1192.69 1161.27 1102.28C1304.71 1011.86 1388.13 1063.04 1531.61 972.598C1675.08 882.161 1591.7 830.963 1735.17 740.526C1878.65 650.088 1962.03 701.286 2105.55 610.822C2249.07 520.359 2165.64 469.187 2309.11 378.749" stroke="#A0A3BD" stroke-opacity="0.05" stroke-width="2.9235" stroke-miterlimit="10"/>
<path d="M-713.715 670.019C-570.24 579.581 -486.854 630.779 -343.379 540.341C-199.904 449.904 -283.29 398.706 -139.857 308.294C3.57701 217.883 87.0043 269.054 230.479 178.617C373.954 88.1793 290.568 36.9817 434.043 -53.4558C577.518 -143.893 660.904 -92.6957 804.42 -183.159C947.937 -273.623 864.509 -324.795 1007.98 -415.232" stroke="#A0A3BD" stroke-opacity="0.05" stroke-width="2.9235" stroke-miterlimit="10"/>
<path d="M326.381 1306.79C469.856 1216.36 553.242 1267.55 696.717 1177.12C840.192 1086.68 756.806 1035.48 900.239 945.069C1043.67 854.658 1127.1 905.829 1270.58 815.392C1414.05 724.954 1330.66 673.757 1474.14 583.319C1617.61 492.882 1701 544.079 1844.52 453.616C1988.03 363.152 1904.61 311.98 2048.08 221.543" stroke="#A0A3BD" stroke-opacity="0.05" stroke-width="2.9235" stroke-miterlimit="10"/>
<path d="M-200.474 983.546C-56.9989 893.108 26.3871 944.306 169.862 853.868C313.337 763.431 229.951 712.233 373.385 621.822C516.818 531.41 600.246 582.582 743.721 492.144C887.196 401.707 803.81 350.509 947.285 260.072C1090.76 169.634 1174.15 220.832 1317.66 130.368C1461.18 39.9045 1377.75 -11.2672 1521.23 -101.705" stroke="#A0A3BD" stroke-opacity="0.05" stroke-width="2.9235" stroke-miterlimit="10"/>
<path d="M839.622 1630.96C983.097 1540.53 1066.48 1591.72 1209.96 1501.29C1353.43 1410.85 1270.05 1359.65 1413.48 1269.24C1556.91 1178.83 1640.34 1230 1783.82 1139.56C1927.29 1049.13 1843.91 997.928 1987.38 907.49C2130.86 817.052 2214.24 868.25 2357.76 777.786C2501.27 687.323 2417.85 636.151 2561.32 545.714" stroke="#A0A3BD" stroke-opacity="0.05" stroke-width="2.9235" stroke-miterlimit="10"/>
<path d="M-1063.88 448.434C-920.406 357.996 -837.02 409.194 -693.545 318.756C-550.07 228.319 -633.456 177.121 -490.023 86.7094C-346.589 -3.70213 -263.162 47.4695 -119.687 -42.9681C23.7882 -133.406 -59.5978 -184.603 83.8771 -275.041C227.352 -365.478 310.738 -314.281 454.254 -404.744C597.771 -495.208 514.343 -546.379 657.818 -636.817" stroke="#A0A3BD" stroke-opacity="0.05" stroke-width="2.9235" stroke-miterlimit="10"/>
<path d="M-21.7119 1086.28C121.763 995.846 205.149 1047.04 348.624 956.606C492.099 866.169 408.713 814.971 552.147 724.559C695.58 634.148 779.008 685.32 922.483 594.882C1065.96 504.444 982.572 453.247 1126.05 362.809C1269.52 272.372 1352.91 323.569 1496.42 233.106C1639.94 142.642 1556.51 91.4706 1699.99 1.03307" stroke="#A0A3BD" stroke-opacity="0.05" stroke-width="2.9235" stroke-miterlimit="10"/>
<path d="M-550.64 772.604C-407.165 682.166 -323.779 733.364 -180.304 642.927C-36.8292 552.489 -120.215 501.291 23.2185 410.88C166.652 320.468 250.079 371.64 393.554 281.202C537.029 190.765 453.643 139.567 597.118 49.1296C740.593 -41.3079 823.979 9.8897 967.496 -80.5739C1111.01 -171.037 1027.58 -222.209 1171.06 -312.647" stroke="#A0A3BD" stroke-opacity="0.05" stroke-width="2.9235" stroke-miterlimit="10"/>
<path d="M489.456 1409.38C632.931 1318.94 716.317 1370.14 859.792 1279.7C1003.27 1189.26 919.881 1138.07 1063.31 1047.65C1206.75 957.243 1290.18 1008.41 1433.65 917.977C1577.13 827.54 1493.74 776.342 1637.21 685.905C1780.69 595.467 1864.08 646.665 2007.59 556.201C2151.11 465.737 2067.68 414.566 2211.16 324.128" stroke="#A0A3BD" stroke-opacity="0.05" stroke-width="2.9235" stroke-miterlimit="10"/>
<path d="M-811.673 615.398C-668.198 524.961 -584.812 576.159 -441.337 485.721C-297.862 395.283 -381.248 344.086 -237.814 253.674C-94.3803 163.263 -10.953 214.434 132.522 123.997C275.997 33.5592 192.611 -17.6384 336.086 -108.076C479.561 -198.513 562.947 -147.316 706.463 -237.779C849.979 -328.243 766.552 -379.415 910.027 -469.852" stroke="#A0A3BD" stroke-opacity="0.05" stroke-width="2.9235" stroke-miterlimit="10"/>
<path d="M230.498 1253.25C373.973 1162.81 457.359 1214.01 600.834 1123.57C744.308 1033.13 660.923 981.936 804.356 891.524C947.79 801.113 1031.22 852.284 1174.69 761.847C1318.17 671.409 1234.78 620.212 1378.26 529.774C1521.73 439.337 1605.12 490.534 1748.63 400.071C1892.15 309.607 1808.72 258.435 1952.2 167.998" stroke="#A0A3BD" stroke-opacity="0.05" stroke-width="2.9235" stroke-miterlimit="10"/>
<path d="M-298.431 928.926C-154.956 838.488 -71.5702 889.686 71.9048 799.248C215.38 708.811 131.994 657.613 275.427 567.202C418.861 476.79 502.288 527.962 645.763 437.524C789.238 347.087 705.852 295.889 849.327 205.451C992.802 115.014 1076.19 166.211 1219.7 75.7479C1363.22 -14.7157 1279.79 -65.8873 1423.27 -156.325" stroke="#A0A3BD" stroke-opacity="0.05" stroke-width="2.9235" stroke-miterlimit="10"/>
<path d="M741.664 1576.34C885.139 1485.91 968.525 1537.1 1112 1446.67C1255.48 1356.23 1172.09 1305.03 1315.52 1214.62C1458.96 1124.21 1542.38 1175.38 1685.86 1084.94C1829.33 994.505 1745.95 943.307 1889.42 852.869C2032.9 762.432 2116.28 813.629 2259.8 723.166C2403.32 632.702 2319.89 581.531 2463.36 491.093" stroke="#A0A3BD" stroke-opacity="0.05" stroke-width="2.9235" stroke-miterlimit="10"/>
<path d="M-889.369 558.219C-745.894 467.781 -662.508 518.979 -519.033 428.541C-375.558 338.104 -458.944 286.906 -315.511 196.495C-172.077 106.083 -88.6498 157.255 54.8252 66.8171C198.3 -23.6205 114.914 -74.8181 258.389 -165.256C401.864 -255.693 485.25 -204.496 628.766 -294.959C772.283 -385.423 688.855 -436.594 832.33 -527.032" stroke="#A0A3BD" stroke-opacity="0.05" stroke-width="2.9235" stroke-miterlimit="10"/>
<path d="M152.8 1196.07C296.275 1105.63 379.661 1156.83 523.136 1066.39C666.611 975.954 583.225 924.756 726.659 834.345C870.093 743.933 953.52 795.105 1096.99 704.667C1240.47 614.23 1157.08 563.032 1300.56 472.594C1444.03 382.157 1527.42 433.355 1670.94 342.891C1814.45 252.427 1731.03 201.256 1874.5 110.818" stroke="#A0A3BD" stroke-opacity="0.05" stroke-width="2.9235" stroke-miterlimit="10"/>
<path d="M-376.128 871.746C-232.653 781.309 -149.267 832.506 -5.79246 742.069C137.683 651.631 54.2965 600.433 197.73 510.022C341.164 419.61 424.591 470.782 568.066 380.344C711.541 289.907 628.155 238.709 771.63 148.272C915.105 57.8342 998.491 109.032 1142.01 18.5682C1285.52 -71.8954 1202.1 -123.067 1345.57 -213.505" stroke="#A0A3BD" stroke-opacity="0.05" stroke-width="2.9235" stroke-miterlimit="10"/>
<path d="M663.969 1519.16C807.444 1428.73 890.83 1479.92 1034.3 1389.49C1177.78 1299.05 1094.39 1247.85 1237.83 1157.44C1381.26 1067.03 1464.69 1118.2 1608.16 1027.76C1751.64 937.325 1668.25 886.127 1811.73 795.69C1955.2 705.252 2038.59 756.45 2182.1 665.986C2325.62 575.523 2242.19 524.351 2385.67 433.914" stroke="#A0A3BD" stroke-opacity="0.05" stroke-width="2.9235" stroke-miterlimit="10"/>
<path d="M-637.16 725.183C-493.685 634.746 -410.299 685.943 -266.824 595.506C-123.349 505.068 -206.735 453.87 -63.3013 363.459C80.1324 273.047 163.56 324.219 307.035 233.781C450.51 143.344 367.124 92.1463 510.599 1.70874C654.074 -88.7288 737.46 -37.5312 880.976 -127.995C1024.49 -218.458 941.065 -269.63 1084.54 -360.068" stroke="#A0A3BD" stroke-opacity="0.05" stroke-width="2.9235" stroke-miterlimit="10"/>
<path d="M402.935 1361.96C546.41 1271.52 629.796 1322.72 773.271 1232.28C916.746 1141.84 833.36 1090.65 976.794 1000.23C1120.23 909.823 1203.65 960.994 1347.13 870.557C1490.6 780.119 1407.22 728.922 1550.69 638.484C1694.17 548.047 1777.55 599.244 1921.07 508.781C2064.59 418.317 1981.16 367.145 2124.63 276.708" stroke="#A0A3BD" stroke-opacity="0.05" stroke-width="2.9235" stroke-miterlimit="10"/>
<path d="M-123.918 1038.71C19.5565 948.272 102.943 999.47 246.418 909.033C389.892 818.595 306.506 767.397 449.94 676.986C593.374 586.574 676.801 637.746 820.276 547.308C963.751 456.871 880.365 405.673 1023.84 315.236C1167.32 224.798 1250.7 275.996 1394.22 185.532C1537.73 95.0685 1454.31 43.8969 1597.78 -46.5407" stroke="#A0A3BD" stroke-opacity="0.05" stroke-width="2.9235" stroke-miterlimit="10"/>
<path d="M916.177 1686.13C1059.65 1595.69 1143.04 1646.89 1286.51 1556.45C1429.99 1466.01 1346.6 1414.82 1490.04 1324.4C1633.47 1233.99 1716.9 1285.16 1860.37 1194.73C2003.85 1104.29 1920.46 1053.09 2063.94 962.654C2207.41 872.217 2290.8 923.414 2434.31 832.951C2577.83 742.487 2494.4 691.315 2637.88 600.878" stroke="#A0A3BD" stroke-opacity="0.05" stroke-width="2.9235" stroke-miterlimit="10"/>
<path d="M-340.124 903.327C-196.649 812.889 -113.263 864.087 30.2124 773.649C173.687 683.212 90.3014 632.014 233.735 541.602C377.169 451.191 460.596 502.363 604.071 411.925C747.546 321.487 664.16 270.29 807.635 179.852C951.11 89.4147 1034.5 140.612 1178.01 50.1488C1321.53 -40.3148 1238.1 -91.4864 1381.58 -181.924" stroke="#A0A3BD" stroke-opacity="0.05" stroke-width="2.9235" stroke-miterlimit="10"/>
<path d="M-1105.57 422.834C-962.099 332.397 -878.713 383.595 -735.238 293.157C-591.763 202.719 -675.149 151.522 -531.716 61.1103C-388.282 -29.3013 -304.855 21.8704 -161.38 -68.5672C-17.9048 -159.005 -101.291 -210.202 42.1842 -300.64C185.659 -391.077 269.045 -339.88 412.561 -430.343C556.078 -520.807 472.65 -571.979 616.125 -662.416" stroke="#A0A3BD" stroke-opacity="0.05" stroke-width="2.9235" stroke-miterlimit="10"/>
<path d="M-63.4045 1060.68C80.0704 970.247 163.456 1021.44 306.931 931.007C450.406 840.57 367.02 789.372 510.454 698.96C653.888 608.549 737.315 659.72 880.79 569.283C1024.27 478.845 940.879 427.648 1084.35 337.21C1227.83 246.773 1311.21 297.97 1454.73 207.507C1598.25 117.043 1514.82 65.8715 1658.3 -24.566" stroke="#A0A3BD" stroke-opacity="0.05" stroke-width="2.9235" stroke-miterlimit="10"/>
<path d="M-592.333 747.005C-448.858 656.567 -365.472 707.765 -221.997 617.327C-78.5216 526.89 -161.908 475.692 -18.4739 385.281C124.96 294.869 208.387 346.041 351.862 255.603C495.337 165.166 411.951 113.968 555.426 23.5305C698.901 -66.907 782.287 -15.7094 925.803 -106.173C1069.32 -196.637 985.892 -247.808 1129.37 -338.246" stroke="#A0A3BD" stroke-opacity="0.05" stroke-width="2.9235" stroke-miterlimit="10"/>
<path d="M447.763 1383.78C591.238 1293.34 674.624 1344.54 818.099 1254.1C961.574 1163.67 878.188 1112.47 1021.62 1022.06C1165.06 931.645 1248.48 982.816 1391.96 892.379C1535.43 801.941 1452.05 750.743 1595.52 660.306C1739 569.868 1822.38 621.066 1965.9 530.602C2109.42 440.139 2025.99 388.967 2169.46 298.53" stroke="#A0A3BD" stroke-opacity="0.05" stroke-width="2.9235" stroke-miterlimit="10"/>
<path d="M-853.365 589.799C-709.89 499.361 -626.504 550.559 -483.029 460.121C-339.554 369.684 -422.94 318.486 -279.507 228.075C-136.073 137.663 -52.6456 188.835 90.8294 98.3972C234.304 7.95962 150.918 -43.238 294.393 -133.676C437.868 -224.113 521.254 -172.915 664.771 -263.379C808.287 -353.843 724.86 -405.014 868.335 -495.452" stroke="#A0A3BD" stroke-opacity="0.05" stroke-width="2.9235" stroke-miterlimit="10"/>
<path d="M188.803 1227.65C332.278 1137.21 415.664 1188.41 559.139 1097.97C702.614 1007.53 619.228 956.337 762.662 865.925C906.096 775.514 989.523 826.685 1133 736.248C1276.47 645.81 1193.09 594.613 1336.56 504.175C1480.04 413.738 1563.42 464.935 1706.94 374.472C1850.46 284.008 1767.03 232.836 1910.5 142.399" stroke="#A0A3BD" stroke-opacity="0.05" stroke-width="2.9235" stroke-miterlimit="10"/>
<path d="M-1007.62 477.455C-864.143 387.018 -780.757 438.215 -637.282 347.778C-493.807 257.34 -577.193 206.142 -433.759 115.731C-290.325 25.3194 -206.898 76.491 -63.4232 -13.9466C80.0518 -104.384 -3.33428 -155.582 140.141 -246.019C283.616 -336.457 367.002 -285.259 510.518 -375.723C654.034 -466.186 570.607 -517.358 714.082 -607.796" stroke="#A0A3BD" stroke-opacity="0.05" stroke-width="2.9235" stroke-miterlimit="10"/>
<path d="M34.5525 1115.31C178.027 1024.87 261.413 1076.07 404.888 985.628C548.363 895.19 464.977 843.993 608.411 753.581C751.845 663.169 835.272 714.341 978.747 623.904C1122.22 533.466 1038.84 482.268 1182.31 391.831C1325.79 301.393 1409.17 352.591 1552.69 262.127C1696.2 171.664 1612.78 120.492 1756.25 30.0546" stroke="#A0A3BD" stroke-opacity="0.05" stroke-width="2.9235" stroke-miterlimit="10"/>
<path d="M-494.376 790.982C-350.901 700.545 -267.515 751.743 -124.04 661.305C19.435 570.867 -63.951 519.67 79.4827 429.258C222.916 338.847 306.344 390.018 449.819 299.581C593.294 209.143 509.908 157.946 653.383 67.5081C796.857 -22.9295 880.244 28.2681 1023.76 -62.1954C1167.28 -152.659 1083.85 -203.831 1227.32 -294.268" stroke="#A0A3BD" stroke-opacity="0.05" stroke-width="2.9235" stroke-miterlimit="10"/>
<path d="M545.72 1438.4C689.195 1347.96 772.581 1399.16 916.056 1308.72C1059.53 1218.29 976.145 1167.09 1119.58 1076.68C1263.01 986.265 1346.44 1037.44 1489.91 946.999C1633.39 856.561 1550 805.364 1693.48 714.926C1836.95 624.488 1920.34 675.686 2063.86 585.223C2207.37 494.759 2123.94 443.587 2267.42 353.15" stroke="#A0A3BD" stroke-opacity="0.05" stroke-width="2.9235" stroke-miterlimit="10"/>
<path d="M-755.409 644.419C-611.934 553.982 -528.548 605.18 -385.073 514.742C-241.598 424.304 -324.984 373.107 -181.551 282.695C-38.1168 192.284 45.3105 243.455 188.785 153.018C332.26 62.5802 248.874 11.3826 392.349 -79.0549C535.824 -169.492 619.21 -118.295 762.727 -208.758C906.243 -299.222 822.816 -350.394 966.291 -440.831" stroke="#A0A3BD" stroke-opacity="0.05" stroke-width="2.9235" stroke-miterlimit="10"/>
<path d="M284.688 1281.19C428.163 1190.76 511.549 1241.95 655.024 1151.52C798.499 1061.08 715.113 1009.88 858.547 919.47C1001.98 829.059 1085.41 880.23 1228.88 789.793C1372.36 699.355 1288.97 648.158 1432.45 557.72C1575.92 467.282 1659.31 518.48 1802.82 428.016C1946.34 337.553 1862.91 286.381 2006.39 195.944" stroke="#A0A3BD" stroke-opacity="0.05" stroke-width="2.9235" stroke-miterlimit="10"/>
<path d="M-242.167 957.947C-98.692 867.51 -15.306 918.707 128.169 828.27C271.644 737.832 188.258 686.635 331.692 596.223C475.125 505.812 558.553 556.983 702.028 466.546C845.503 376.108 762.117 324.91 905.592 234.473C1049.07 144.035 1132.45 195.233 1275.97 104.769C1419.49 14.3058 1336.06 -36.8658 1479.53 -127.303" stroke="#A0A3BD" stroke-opacity="0.05" stroke-width="2.9235" stroke-miterlimit="10"/>
<path d="M797.93 1605.36C941.405 1514.93 1024.79 1566.13 1168.27 1475.69C1311.74 1385.25 1228.35 1334.05 1371.79 1243.64C1515.22 1153.23 1598.65 1204.4 1742.12 1113.96C1885.6 1023.53 1802.21 972.328 1945.69 881.891C2089.16 791.453 2172.55 842.651 2316.07 752.187C2459.58 661.724 2376.15 610.552 2519.63 520.114" stroke="#A0A3BD" stroke-opacity="0.05" stroke-width="2.9235" stroke-miterlimit="10"/>
</g>
<defs>
<clipPath id="clip0_711_81">
<rect width="1728" height="1075" fill="white"/>
</clipPath>
</defs>
</svg>
