<svg width="32" height="32" viewBox="0 0 32 32" fill="none" xmlns="http://www.w3.org/2000/svg">
<rect width="32" height="32" rx="4" fill="#9269CD" fill-opacity="0.2"/>
<mask id="mask0_6_236" style="mask-type:alpha" maskUnits="userSpaceOnUse" x="8" y="8" width="16" height="16">
<rect x="8" y="8" width="16" height="16" fill="#D9D9D9"/>
</mask>
<g mask="url(#mask0_6_236)">
<path d="M14.3334 19V13L19.0001 16L14.3334 19ZM16.0001 23.3333C14.8001 23.3333 13.6752 23.0582 12.6254 22.508C11.5752 21.9582 10.7001 21.1888 10.0001 20.2V22H8.66675V18H12.6667V19.3333H11.0334C11.6001 20.1666 12.3194 20.8195 13.1914 21.292C14.0639 21.764 15.0001 22 16.0001 22C17.2779 22 18.4361 21.6333 19.4747 20.9C20.5139 20.1666 21.2445 19.1944 21.6667 17.9833L22.9667 18.2833C22.4667 19.7944 21.5779 21.014 20.3001 21.942C19.0223 22.8695 17.589 23.3333 16.0001 23.3333ZM8.70008 15.3333C8.77786 14.5888 8.95564 13.8748 9.23341 13.1913C9.51119 12.5082 9.89453 11.8777 10.3834 11.3L11.3334 12.25C10.9779 12.7055 10.689 13.1915 10.4667 13.708C10.2445 14.2248 10.1056 14.7666 10.0501 15.3333H8.70008ZM12.2667 11.3166L11.3167 10.3666C11.9056 9.87773 12.539 9.49151 13.2167 9.20795C13.8945 8.92484 14.6001 8.75551 15.3334 8.69995V10.0333C14.7667 10.0888 14.2279 10.2277 13.7167 10.45C13.2056 10.6722 12.7223 10.9611 12.2667 11.3166ZM19.7501 11.3166C19.2945 10.9611 18.8085 10.6722 18.2921 10.45C17.7752 10.2277 17.2334 10.0888 16.6667 10.0333V8.69995C17.4112 8.76662 18.125 8.93884 18.8081 9.21662C19.4916 9.4944 20.1223 9.87773 20.7001 10.3666L19.7501 11.3166ZM21.9667 15.3333C21.9112 14.7666 21.7723 14.2248 21.5501 13.708C21.3279 13.1915 21.039 12.7055 20.6834 12.25L21.6334 11.3C22.1223 11.8777 22.5056 12.5082 22.7834 13.1913C23.0612 13.8748 23.2334 14.5888 23.3001 15.3333H21.9667Z" fill="#9269CD"/>
</g>
</svg>
