<svg width="160" height="41" viewBox="0 0 160 41" fill="none" xmlns="http://www.w3.org/2000/svg">
<path d="M50.9882 32.2918L52.9735 27.6675C55.1188 29.2731 57.9686 30.1081 60.7863 30.1081C62.8676 30.1081 64.1804 29.3052 64.1804 28.0849C64.1484 24.6809 51.7247 27.3463 51.6286 18.8042C51.5966 14.4689 55.439 11.1291 60.8824 11.1291C64.1164 11.1291 67.3504 11.9319 69.6558 13.7624L67.7987 18.483C65.6853 17.1343 63.0597 16.1709 60.5622 16.1709C58.8651 16.1709 57.7444 16.9737 57.7444 18.0013C57.7764 21.3411 70.2962 19.5107 70.4243 27.6675C70.4243 32.0991 66.678 35.2141 61.2986 35.2141C57.3602 35.2141 53.7419 34.2828 50.9882 32.2918Z" fill="white"/>
<path d="M127.164 25.9976C126.171 27.7317 124.314 28.9199 122.168 28.9199C118.998 28.9199 116.437 26.3508 116.437 23.1716C116.437 19.9924 118.998 17.4233 122.168 17.4233C124.314 17.4233 126.171 18.6115 127.164 20.3456L132.639 17.2948C130.59 13.6339 126.651 11.1291 122.168 11.1291C115.54 11.1291 110.161 16.5241 110.161 23.1716C110.161 29.8191 115.54 35.2141 122.168 35.2141C126.683 35.2141 130.59 32.7414 132.639 29.0483L127.164 25.9976Z" fill="white"/>
<path d="M80.0302 1.14178H73.178V34.7645H80.0302V1.14178Z" fill="white"/>
<path d="M135.329 1.14178V34.7645H142.181V24.6809L150.314 34.7645H159.087L148.745 22.7862L158.319 11.6108H149.93L142.181 20.8915V1.14178H135.329Z" fill="white"/>
<path d="M100.395 26.0618C99.4023 27.6996 97.3531 28.9199 95.0476 28.9199C91.8777 28.9199 89.3161 26.3508 89.3161 23.1716C89.3161 19.9924 91.8777 17.4233 95.0476 17.4233C97.3531 17.4233 99.4023 18.7078 100.395 20.3777V26.0618ZM100.395 11.6108V14.3404C99.2743 12.4457 96.4885 11.1291 93.5747 11.1291C87.555 11.1291 82.816 16.4599 82.816 23.1395C82.816 29.8191 87.555 35.2141 93.5747 35.2141C96.4885 35.2141 99.2743 33.8975 100.395 32.0028V34.7324H107.247V11.6108H100.395Z" fill="white"/>
<path d="M8.6258 26.0297C8.6258 28.374 6.73662 30.2686 4.39917 30.2686C2.06172 30.2686 0.172546 28.374 0.172546 26.0297C0.172546 23.6854 2.06172 21.7907 4.39917 21.7907H8.6258V26.0297Z" fill="white"/>
<path d="M10.7391 26.0297C10.7391 23.6854 12.6282 21.7907 14.9657 21.7907C17.3032 21.7907 19.1923 23.6854 19.1923 26.0297V36.6271C19.1923 38.9714 17.3032 40.8661 14.9657 40.8661C12.6282 40.8661 10.7391 38.9714 10.7391 36.6271V26.0297Z" fill="white"/>
<path d="M14.9658 9.00959C12.6284 9.00959 10.7392 7.1149 10.7392 4.77062C10.7392 2.42634 12.6284 0.531647 14.9658 0.531647C17.3033 0.531647 19.1924 2.42634 19.1924 4.77062V9.00959H14.9658Z" fill="white"/>
<path d="M14.9659 11.1612C17.3033 11.1612 19.1925 13.0559 19.1925 15.4002C19.1925 17.7444 17.3033 19.6391 14.9659 19.6391H4.36731C2.02986 19.6391 0.140686 17.7444 0.140686 15.4002C0.140686 13.0559 2.02986 11.1612 4.36731 11.1612H14.9659Z" fill="white"/>
<path d="M31.9044 15.4002C31.9044 13.0559 33.7935 11.1612 36.131 11.1612C38.4684 11.1612 40.3576 13.0559 40.3576 15.4002C40.3576 17.7444 38.4684 19.6391 36.131 19.6391H31.9044V15.4002Z" fill="white"/>
<path d="M29.791 15.4002C29.791 17.7444 27.9018 19.6391 25.5644 19.6391C23.2269 19.6391 21.3378 17.7444 21.3378 15.4002V4.77062C21.3378 2.42634 23.2269 0.531647 25.5644 0.531647C27.9018 0.531647 29.791 2.42634 29.791 4.77062V15.4002Z" fill="white"/>
<path d="M25.5644 32.3882C27.9018 32.3882 29.791 34.2828 29.791 36.6271C29.791 38.9714 27.9018 40.8661 25.5644 40.8661C23.2269 40.8661 21.3378 38.9714 21.3378 36.6271V32.3882H25.5644Z" fill="white"/>
<path d="M25.5644 30.2686C23.2269 30.2686 21.3378 28.374 21.3378 26.0297C21.3378 23.6854 23.2269 21.7907 25.5644 21.7907H36.163C38.5004 21.7907 40.3896 23.6854 40.3896 26.0297C40.3896 28.374 38.5004 30.2686 36.163 30.2686H25.5644Z" fill="white"/>
</svg>
