<svg width="9" height="6" viewBox="0 0 9 6" fill="none" xmlns="http://www.w3.org/2000/svg">
<path d="M5.264 2.09728V1.53062C5.44733 1.45284 5.63489 1.3945 5.82666 1.35562C6.01822 1.31673 6.21955 1.29728 6.43066 1.29728C6.57511 1.29728 6.71678 1.30839 6.85566 1.33062C6.99455 1.35284 7.13066 1.38062 7.264 1.41395V1.94728C7.13066 1.89728 6.996 1.85984 6.86 1.83495C6.72378 1.80984 6.58066 1.79728 6.43066 1.79728C6.21955 1.79728 6.01678 1.82373 5.82233 1.87662C5.62789 1.92928 5.44178 2.00284 5.264 2.09728ZM5.264 3.93062V3.36395C5.44733 3.28617 5.63489 3.22784 5.82666 3.18895C6.01822 3.15006 6.21955 3.13062 6.43066 3.13062C6.57511 3.13062 6.71678 3.14173 6.85566 3.16395C6.99455 3.18617 7.13066 3.21395 7.264 3.24728V3.78062C7.13066 3.73062 6.996 3.69317 6.86 3.66828C6.72378 3.64317 6.58066 3.63062 6.43066 3.63062C6.21955 3.63062 6.01678 3.65562 5.82233 3.70562C5.62789 3.75562 5.44178 3.83062 5.264 3.93062ZM5.264 3.01395V2.44728C5.44733 2.3695 5.63489 2.31117 5.82666 2.27228C6.01822 2.23339 6.21955 2.21395 6.43066 2.21395C6.57511 2.21395 6.71678 2.22506 6.85566 2.24728C6.99455 2.2695 7.13066 2.29728 7.264 2.33062V2.86395C7.13066 2.81395 6.996 2.7765 6.86 2.75162C6.72378 2.7265 6.58066 2.71395 6.43066 2.71395C6.21955 2.71395 6.01678 2.74039 5.82233 2.79328C5.62789 2.84595 5.44178 2.9195 5.264 3.01395ZM2.764 4.13062C3.02511 4.13062 3.27933 4.15973 3.52666 4.21795C3.77378 4.27639 4.01955 4.36395 4.264 4.48062V1.19728C4.03622 1.06395 3.79455 0.963949 3.539 0.897282C3.28344 0.830615 3.02511 0.797282 2.764 0.797282C2.564 0.797282 2.36544 0.816726 2.16833 0.855615C1.971 0.894504 1.78066 0.952837 1.59733 1.03062V4.33062C1.79178 4.26395 1.98489 4.21395 2.17666 4.18062C2.36822 4.14728 2.564 4.13062 2.764 4.13062ZM4.93066 4.48062C5.17511 4.36395 5.421 4.27639 5.66833 4.21795C5.91544 4.15973 6.16955 4.13062 6.43066 4.13062C6.63066 4.13062 6.82655 4.14728 7.01833 4.18062C7.20989 4.21395 7.40289 4.26395 7.59733 4.33062V1.03062C7.414 0.952837 7.22378 0.894504 7.02666 0.855615C6.82933 0.816726 6.63066 0.797282 6.43066 0.797282C6.16955 0.797282 5.91122 0.830615 5.65566 0.897282C5.40011 0.963949 5.15844 1.06395 4.93066 1.19728V4.48062ZM4.59733 5.46395C4.33066 5.25284 4.04178 5.08895 3.73066 4.97228C3.41955 4.85562 3.09733 4.79728 2.764 4.79728C2.53066 4.79728 2.30155 4.82784 2.07666 4.88895C1.85155 4.95006 1.63622 5.03617 1.43066 5.14728C1.314 5.20839 1.20155 5.20562 1.09333 5.13895C0.984886 5.07228 0.930664 4.97506 0.930664 4.84728V0.830615C0.930664 0.769504 0.945997 0.711171 0.976664 0.655615C1.00711 0.60006 1.05289 0.558393 1.114 0.530615C1.36955 0.397282 1.63622 0.297282 1.914 0.230615C2.19178 0.163949 2.47511 0.130615 2.764 0.130615C3.08622 0.130615 3.40155 0.172282 3.71 0.255615C4.01822 0.338949 4.314 0.463949 4.59733 0.630615C4.88066 0.463949 5.17655 0.338949 5.485 0.255615C5.79322 0.172282 6.10844 0.130615 6.43066 0.130615C6.71955 0.130615 7.00289 0.163949 7.28066 0.230615C7.55844 0.297282 7.82511 0.397282 8.08066 0.530615C8.14178 0.558393 8.18766 0.60006 8.21833 0.655615C8.24878 0.711171 8.264 0.769504 8.264 0.830615V4.84728C8.264 4.97506 8.20989 5.07228 8.10166 5.13895C7.99322 5.20562 7.88066 5.20839 7.764 5.14728C7.55844 5.03617 7.34311 4.95006 7.118 4.88895C6.89311 4.82784 6.664 4.79728 6.43066 4.79728C6.09733 4.79728 5.77511 4.85562 5.464 4.97228C5.15289 5.08895 4.864 5.25284 4.59733 5.46395Z" fill="#A1A1A1"/>
</svg>
