<svg width="8" height="8" viewBox="0 0 8 8" fill="none" xmlns="http://www.w3.org/2000/svg">
<path d="M5.09984 5.36411L5.5665 4.89744L4.33317 3.66411V2.13078H3.6665V3.93078L5.09984 5.36411ZM3.99984 7.13078C3.53873 7.13078 3.10539 7.04322 2.69984 6.86811C2.29428 6.69322 1.9415 6.45578 1.6415 6.15578C1.3415 5.85578 1.10406 5.503 0.929171 5.09744C0.754059 4.69189 0.666504 4.25856 0.666504 3.79744C0.666504 3.33633 0.754059 2.903 0.929171 2.49744C1.10406 2.09189 1.3415 1.73911 1.6415 1.43911C1.9415 1.13911 2.29428 0.901556 2.69984 0.726445C3.10539 0.551556 3.53873 0.464111 3.99984 0.464111C4.46095 0.464111 4.89428 0.551556 5.29984 0.726445C5.70539 0.901556 6.05817 1.13911 6.35817 1.43911C6.65817 1.73911 6.89562 2.09189 7.0705 2.49744C7.24562 2.903 7.33317 3.33633 7.33317 3.79744C7.33317 4.25856 7.24562 4.69189 7.0705 5.09744C6.89562 5.503 6.65817 5.85578 6.35817 6.15578C6.05817 6.45578 5.70539 6.69322 5.29984 6.86811C4.89428 7.04322 4.46095 7.13078 3.99984 7.13078ZM3.99984 6.46411C4.73873 6.46411 5.36795 6.20444 5.8875 5.68511C6.40684 5.16556 6.6665 4.53633 6.6665 3.79744C6.6665 3.05856 6.40684 2.42933 5.8875 1.90978C5.36795 1.39044 4.73873 1.13078 3.99984 1.13078C3.26095 1.13078 2.63184 1.39044 2.1125 1.90978C1.59295 2.42933 1.33317 3.05856 1.33317 3.79744C1.33317 4.53633 1.59295 5.16556 2.1125 5.68511C2.63184 6.20444 3.26095 6.46411 3.99984 6.46411Z" fill="#A1A1A1"/>
</svg>
