<svg width="155" height="190" viewBox="0 0 155 190" fill="none" xmlns="http://www.w3.org/2000/svg">
<path d="M65.4689 91.1156C65.1436 90.2013 65.1127 89.4906 64.759 89.0162C55.1917 68.153 44.2455 48.4039 29.7491 31.2537C23.1786 23.4921 15.7585 16.9809 8.07511 10.9767C6.10263 9.38253 4.07077 7.51751 2.18608 5.75429C1.53806 5.07628 0.830673 4.12743 0.505404 3.21315C0.386669 2.6715 0.531312 1.62275 0.941863 1.21745C1.35241 0.812161 2.26382 0.983084 2.70531 1.28847C21.9268 15.5036 39.1265 32.4559 51.8411 54.5771C58.3314 65.9594 64.5867 77.409 69.8737 89.5673C70.4055 90.8542 71.291 92.6156 72.2618 93.0573C84.8819 98.8001 94.9249 108.734 103.649 120.053C117.205 137.472 130.028 155.533 143.174 173.357C144.029 174.408 144.943 175.729 146.502 176.578C144.882 161.212 143.026 145.913 141.346 130.276C143.668 130.044 144.669 131.196 145.408 132.856C146.205 134.786 147.15 136.818 147.625 138.985C150.002 150.968 152.38 162.952 154.522 175.003C154.968 177.609 154.945 180.35 154.774 182.99C154.286 188.166 150.999 190.258 146.822 188.287C138.702 184.279 130.817 180.203 122.873 175.857C120.49 174.668 119.692 172.737 120.363 170.674C121.094 168.882 122.915 168.074 125.385 169.094C129.651 170.895 133.74 173.035 138.447 175.142C137.974 174.126 137.856 173.584 137.502 173.11C123.858 155.859 110.301 138.44 96.3339 121.426C92.2083 116.275 87.0266 112.001 82.3149 107.593C80.4302 105.83 78.0472 104.641 75.3982 102.809C75.6667 104.603 75.9635 105.957 76.201 107.04C78.5707 115.572 80.1477 124.475 80.2556 133.511C80.2732 141.564 78.9379 149.142 75.1033 156.139C73.7271 158.404 72.2629 160.838 70.4452 162.797C62.5001 171.546 51.3617 171.424 43.0253 162.44C32.5098 151.49 25.0521 127.721 35.4712 108.046C41.2657 96.8901 50.2175 91.5943 61.4721 91.108C62.7063 91.0427 64.0876 91.0791 65.4689 91.1156ZM70.895 153.458C74.084 146.933 75.4218 140.506 75.319 133.772C75.4719 123.079 73.2159 112.787 70.1673 102.867C69.5452 100.598 68.2207 99.6822 66.3385 99.0695C56.3699 96.3096 44.9214 102.176 40.0358 112.352C33.4537 126.18 36.2616 146.963 46.3949 157.878C53.141 165.302 61.4574 165.081 67.9358 157.615C69.1081 156.128 70.221 154.37 70.895 153.458Z" fill="white"/>
</svg>
