<svg width="130" height="55" viewBox="0 0 130 55" fill="none" xmlns="http://www.w3.org/2000/svg">
<path fill-rule="evenodd" clip-rule="evenodd" d="M129.659 28.1307C129.659 18.8965 125.198 11.6101 116.671 11.6101C108.109 11.6101 102.928 18.8965 102.928 28.0586C102.928 38.916 109.044 44.3988 117.823 44.3988C122.104 44.3988 125.342 43.4249 127.788 42.0542V34.84C125.342 36.0664 122.536 36.8239 118.974 36.8239C115.484 36.8239 112.39 35.5975 111.994 31.341H129.587C129.587 30.8721 129.659 28.9964 129.659 28.1307ZM111.886 24.7039C111.886 20.6279 114.369 18.9325 116.635 18.9325C118.83 18.9325 121.168 20.6279 121.168 24.7039H111.886Z" fill="white"/>
<path fill-rule="evenodd" clip-rule="evenodd" d="M89.0408 11.6101C85.515 11.6101 83.2485 13.2694 81.9893 14.4236L81.5215 12.1872H73.6065V54.2463L82.6009 52.3345L82.6368 42.1263C83.932 43.0642 85.8388 44.3988 89.0049 44.3988C95.4448 44.3988 101.309 39.2046 101.309 27.77C101.273 17.3093 95.3369 11.6101 89.0408 11.6101ZM86.8822 36.4632C84.7595 36.4632 83.5003 35.7057 82.6368 34.7678L82.6009 21.3854C83.5363 20.3393 84.8315 19.6179 86.8822 19.6179C90.1561 19.6179 92.4227 23.2972 92.4227 28.0225C92.4227 32.856 90.1921 36.4632 86.8822 36.4632Z" fill="white"/>
<path fill-rule="evenodd" clip-rule="evenodd" d="M61.2302 9.48186L70.2606 7.53401V0.211548L61.2302 2.12332V9.48186Z" fill="white"/>
<path d="M70.2606 12.2233H61.2302V43.7857H70.2606V12.2233Z" fill="white"/>
<path fill-rule="evenodd" clip-rule="evenodd" d="M51.5522 14.8926L50.9765 12.2233H43.2054V43.7856H52.1997V22.3954C54.3224 19.6179 57.9202 20.1229 59.0355 20.5197V12.2233C57.8842 11.7904 53.6748 10.9969 51.5522 14.8926Z" fill="white"/>
<path fill-rule="evenodd" clip-rule="evenodd" d="M33.5634 4.39581L24.7849 6.27152L24.749 35.1646C24.749 40.5031 28.7425 44.4349 34.0671 44.4349C37.0173 44.4349 39.1759 43.8938 40.3632 43.2446V35.9221C39.2119 36.391 33.5275 38.0503 33.5275 32.7117V19.9065H40.3632V12.2233H33.5275L33.5634 4.39581Z" fill="white"/>
<path fill-rule="evenodd" clip-rule="evenodd" d="M9.24274 21.3854C9.24274 19.9786 10.394 19.4375 12.3008 19.4375C15.0351 19.4375 18.4889 20.2672 21.2232 21.7461V13.2694C18.2371 12.079 15.287 11.6101 12.3008 11.6101C4.9974 11.6101 0.140442 15.4336 0.140442 21.8182C0.140442 31.7739 13.8119 30.1868 13.8119 34.4792C13.8119 36.1385 12.3728 36.6796 10.358 36.6796C7.37191 36.6796 3.5583 35.4532 0.536193 33.7939V42.3788C3.8821 43.8217 7.26398 44.4349 10.358 44.4349C17.8414 44.4349 22.9861 40.7196 22.9861 34.2628C22.9502 23.5136 9.24274 25.4254 9.24274 21.3854Z" fill="white"/>
</svg>
