<svg width="33" height="28" viewBox="0 0 33 28" fill="none" xmlns="http://www.w3.org/2000/svg">
<g clip-path="url(#clip0_711_59)">
<path d="M28.8888 7.44415C28.9082 7.72469 28.9082 8.00524 28.9082 8.28837C28.9082 16.9154 22.3533 26.865 10.3675 26.865V26.8598C6.82689 26.865 3.3598 25.8488 0.37915 23.9328C0.893989 23.9949 1.41141 24.0259 1.93012 24.0272C4.86431 24.0298 7.71463 23.0434 10.023 21.227C7.23463 21.1739 4.78947 19.3524 3.93528 16.693C4.91205 16.8818 5.91851 16.843 6.87721 16.5805C3.83721 15.9652 1.65012 13.289 1.65012 10.1811C1.65012 10.1526 1.65012 10.1255 1.65012 10.0983C2.55592 10.6038 3.57012 10.8844 4.60754 10.9154C1.74431 8.99813 0.861731 5.18171 2.59076 2.19787C5.89915 6.27673 10.7804 8.75637 16.0204 9.01881C15.4953 6.7512 16.2127 4.37498 17.9056 2.78093C20.5301 0.30905 24.6579 0.435747 27.125 3.06406C28.5843 2.77576 29.983 2.23924 31.263 1.47906C30.7766 2.99037 29.7585 4.27414 28.3985 5.08992C29.6901 4.93736 30.9521 4.59089 32.1404 4.06212C31.2656 5.37563 30.1637 6.51978 28.8888 7.44415Z" fill="white"/>
</g>
<defs>
<clipPath id="clip0_711_59">
<rect width="32" height="26.3736" fill="white" transform="translate(0.25 0.813232)"/>
</clipPath>
</defs>
</svg>
