<svg width="33" height="24" viewBox="0 0 33 24" fill="none" xmlns="http://www.w3.org/2000/svg">
<g clip-path="url(#clip0_711_62)">
<path d="M31.8313 4.27451C31.4633 2.89345 30.3791 1.80592 29.0022 1.43683C26.5067 0.766047 16.5 0.766047 16.5 0.766047C16.5 0.766047 6.49333 0.766047 3.9978 1.43683C2.62102 1.80592 1.53665 2.89345 1.16868 4.27451C0.5 6.77758 0.5 12.0001 0.5 12.0001C0.5 12.0001 0.5 17.2225 1.16868 19.7258C1.53665 21.1067 2.62102 22.1942 3.9978 22.5635C6.49333 23.2341 16.5 23.2341 16.5 23.2341C16.5 23.2341 26.5067 23.2341 29.0022 22.5635C30.3791 22.1942 31.4633 21.1067 31.8313 19.7258C32.5 17.2225 32.5 12.0001 32.5 12.0001C32.5 12.0001 32.5 6.77758 31.8313 4.27451Z" fill="white"/>
<path d="M13.2273 16.7417L21.5909 12.0003L13.2273 7.25845V16.7417Z" fill="#000001"/>
</g>
<defs>
<clipPath id="clip0_711_62">
<rect width="32" height="22.4681" fill="white" transform="translate(0.5 0.765991)"/>
</clipPath>
</defs>
</svg>
