<svg width="130" height="30" viewBox="0 0 130 30" fill="none" xmlns="http://www.w3.org/2000/svg">
<g clip-path="url(#clip0_701_20)">
<path d="M27.3004 29.2512H4.27107C2.74333 29.2512 1.32875 28.4608 0.593168 27.1058C-0.198996 25.525 0.0839197 23.6619 1.32875 22.4763L17.3418 6.49902H5.8554C2.68675 6.49902 0.140503 3.902 0.140503 0.79687H21.3592C22.8869 0.79687 24.3015 1.58727 25.0371 2.94223C25.8293 4.52303 25.5463 6.38611 24.3015 7.5717L8.28848 23.549H21.5855C24.7542 23.549 27.3004 26.146 27.3004 29.2512ZM118.512 0.345215C115.231 0.345215 112.232 1.75664 110.195 4.07137C108.158 1.8131 105.159 0.345215 101.877 0.345215C95.766 0.345215 90.7301 5.53925 90.7301 11.6366V29.2512C93.8988 29.2512 96.445 26.7106 96.445 23.549V11.5801C96.445 8.64438 98.7084 6.16028 101.651 6.04737C104.763 5.93445 107.309 8.41856 107.309 11.4672V23.549C107.309 26.7106 109.855 29.2512 113.024 29.2512V11.5801C113.024 8.64438 115.287 6.16028 118.23 6.04737C121.342 5.93445 123.888 8.41856 123.888 11.4672V23.549C123.888 26.7106 126.434 29.2512 129.603 29.2512V11.6366C129.659 5.53925 124.623 0.345215 118.512 0.345215ZM56.1578 15.024C56.1578 23.0974 49.5376 29.7028 41.4462 29.7028C33.2982 29.7028 26.7346 23.0974 26.7346 15.024C26.7346 6.95068 33.3548 0.345215 41.4462 0.345215C49.5376 0.345215 56.1578 6.95068 56.1578 15.024ZM50.4429 15.024C50.4429 10.0558 46.4255 6.04737 41.4462 6.04737C36.4669 6.04737 32.4495 10.0558 32.4495 15.024C32.4495 19.9922 36.4669 24.0007 41.4462 24.0007C46.4255 24.0007 50.4429 19.9922 50.4429 15.024ZM87.901 15.024C87.901 23.0974 81.2808 29.7028 73.1894 29.7028C65.0414 29.7028 58.4777 23.0974 58.4777 15.024C58.4777 6.95068 65.098 0.345215 73.1894 0.345215C81.2808 0.345215 87.901 6.95068 87.901 15.024ZM82.1861 15.024C82.1861 10.0558 78.1687 6.04737 73.1894 6.04737C68.21 6.04737 64.1926 10.0558 64.1926 15.024C64.1926 19.9922 68.21 24.0007 73.1894 24.0007C78.1687 24.0007 82.1861 19.9922 82.1861 15.024Z" fill="white"/>
</g>
<defs>
<clipPath id="clip0_701_20">
<rect width="129.519" height="29.3576" fill="white" transform="translate(0.140503 0.345215)"/>
</clipPath>
</defs>
</svg>
